<?xml version="1.0" encoding="UTF-8" standalone="no"?>
<!DOCTYPE svg PUBLIC "-//W3C//DTD SVG 1.1//EN" "http://www.w3.org/Graphics/SVG/1.1/DTD/svg11.dtd">
<svg width="100%" height="100%" viewBox="0 0 2061 2061" version="1.1" xmlns="http://www.w3.org/2000/svg" xmlns:xlink="http://www.w3.org/1999/xlink" xml:space="preserve" xmlns:serif="http://www.serif.com/" style="fill-rule:evenodd;clip-rule:evenodd;stroke-linejoin:round;stroke-miterlimit:2;">
    <g transform="matrix(1,0,0,1,-8155.33,-505.741)">
        <g transform="matrix(4.16667,0,0,4.16667,0,0)">
            <path d="M2451.9,368.689C2451.9,505.275 2341.18,616 2204.59,616C2068,616 1957.28,505.275 1957.28,368.689C1957.28,232.103 2068,121.378 2204.59,121.378C2341.18,121.378 2451.9,232.103 2451.9,368.689Z" style="fill:rgb(22,124,193);fill-rule:nonzero;"/>
        </g>
        <g transform="matrix(4.16667,0,0,4.16667,0,0)">
            <path d="M2120.57,308.161C2129.45,299.412 2137.89,291.138 2146.62,282.537C2149.17,284.949 2240.72,376.15 2283.7,419.195C2286.67,422.177 2289.76,425.216 2291.99,428.741C2296.9,436.519 2296.12,444.362 2289.8,450.937C2283.48,457.507 2275.74,458.524 2267.7,454.017C2265.06,452.537 2262.64,450.487 2260.49,448.333C2215,402.897 2121.94,309.814 2120.57,308.161Z" style="fill:white;fill-rule:nonzero;"/>
        </g>
        <g transform="matrix(4.16667,0,0,4.16667,0,0)">
            <path d="M2159.28,240.183C2159.28,240.183 2105.94,293.396 2079.35,319.927C2073.83,313.592 2066.89,307.318 2062.03,299.716C2053.22,285.925 2055.49,269.15 2067.18,256.239C2074.9,247.718 2083.2,239.701 2091.46,231.697C2109.76,213.985 2131.13,212.961 2149.56,230.423C2153.15,233.828 2159.28,240.183 2159.28,240.183Z" style="fill:white;fill-rule:nonzero;"/>
        </g>
        <g transform="matrix(4.16667,0,0,4.16667,0,0)">
            <path d="M2094.16,334.073C2094.16,334.073 2102.55,324.913 2106.61,320.437C2110.24,323.995 2112.8,326.695 2115.48,329.367C2158.47,372.331 2201.46,415.308 2244.42,458.306C2246.86,460.745 2251.3,464.482 2252.12,467.448C2253.07,470.917 2252.45,474.539 2249.87,477.137C2248.04,478.972 2244.35,479.966 2240.95,479.414C2238.69,479.048 2235.39,475.436 2233.49,473.541C2188.33,428.393 2143.19,383.22 2098.06,338.035C2097,336.969 2094.16,334.073 2094.16,334.073Z" style="fill:white;fill-rule:nonzero;"/>
        </g>
        <g transform="matrix(4.16667,0,0,4.16667,0,0)">
            <path d="M2158.63,269.604C2158.63,269.604 2167.02,260.445 2171.08,255.968C2174.71,259.526 2177.27,262.226 2179.95,264.898C2222.94,307.862 2265.93,350.839 2308.89,393.837C2311.32,396.277 2315.77,400.013 2316.59,402.979C2317.54,406.448 2316.92,410.07 2314.34,412.668C2312.51,414.503 2308.82,415.497 2305.42,414.945C2303.16,414.579 2299.86,410.967 2297.96,409.072C2252.8,363.924 2207.66,318.751 2162.53,273.566C2161.47,272.5 2158.63,269.604 2158.63,269.604Z" style="fill:white;fill-rule:nonzero;"/>
        </g>
        <g transform="matrix(4.16667,0,0,4.16667,0,0)">
            <path d="M2264.78,492.237C2267.86,479.944 2273.57,475.16 2285.43,473.768C2300.77,471.968 2309.47,460.571 2313,441.621C2314,436.213 2317.58,431.629 2322.58,429.342C2325.01,428.233 2327.57,427.06 2330.37,425.783C2337.71,455.066 2344.86,483.538 2352.51,514.066C2322.42,506.577 2293.74,499.443 2264.78,492.237Z" style="fill:white;fill-rule:nonzero;"/>
        </g>
    </g>
</svg>
