<?xml version="1.0" encoding="UTF-8" standalone="no"?>
<!DOCTYPE svg PUBLIC "-//W3C//DTD SVG 1.1//EN" "http://www.w3.org/Graphics/SVG/1.1/DTD/svg11.dtd">
<svg width="100%" height="100%" viewBox="0 0 2069 2063" version="1.1" xmlns="http://www.w3.org/2000/svg" xmlns:xlink="http://www.w3.org/1999/xlink" xml:space="preserve" xmlns:serif="http://www.serif.com/" style="fill-rule:evenodd;clip-rule:evenodd;stroke-linejoin:round;stroke-miterlimit:2;">
    <g transform="matrix(1,0,0,1,-27347.8,-1458.55)">
        <g transform="matrix(4.16667,0,0,4.16667,24273.5,-9151.37)">
            <path d="M1234.26,2794.15C1234.26,2930.74 1123.54,3041.46 986.954,3041.46C850.367,3041.46 739.642,2930.74 739.642,2794.15C739.642,2657.57 850.367,2546.84 986.954,2546.84C1123.54,2546.84 1234.26,2657.57 1234.26,2794.15Z" style="fill:rgb(0,124,194);fill-rule:nonzero;"/>
        </g>
        <g transform="matrix(4.16667,0,0,4.16667,24273.5,-9151.37)">
            <path d="M765,2906.51C747.62,2872.68 737.819,2834.33 737.819,2793.69C737.819,2657.1 848.55,2546.38 985.13,2546.38C1006.46,2546.38 1027.17,2549.08 1046.92,2554.16C1027.72,2549.38 1007.64,2546.84 986.954,2546.84C850.367,2546.84 739.642,2657.57 739.642,2794.15C739.642,2833.48 748.819,2870.66 765.149,2903.67C765.039,2905.41 765.004,2906.39 765,2906.51Z" style="fill:rgb(223,223,222);fill-rule:nonzero;"/>
        </g>
        <g transform="matrix(4.16667,0,0,4.16667,24273.5,-9151.37)">
            <path d="M877.104,2749.83C914.927,2819.67 1074.4,2815.07 1102.04,2747.74C1106.88,2772.29 1097.18,2789.82 1077.79,2802.97C1032.96,2833.39 947.54,2833.68 902.497,2803.7C883.985,2791.37 872.761,2775.49 877.104,2749.83Z" style="fill:white;fill-rule:nonzero;"/>
        </g>
        <g transform="matrix(4.16667,0,0,4.16667,24273.5,-9151.37)">
            <path d="M877.104,2793.07C914.927,2862.91 1074.4,2858.3 1102.04,2790.98C1106.88,2815.53 1097.18,2833.06 1077.79,2846.21C1032.96,2876.63 947.54,2876.92 902.497,2846.93C883.985,2834.61 872.761,2818.72 877.104,2793.07Z" style="fill:white;fill-rule:nonzero;"/>
        </g>
        <g transform="matrix(4.16667,0,0,4.16667,24273.5,-9151.37)">
            <path d="M878.444,2883.57C904.703,2923.87 946.361,2931.88 989.788,2931.67C1034.03,2931.45 1076.74,2923.79 1102.36,2880.26C1106.25,2902.76 1098.21,2920 1079.83,2933.15C1034.44,2965.64 945.313,2965.92 899.81,2933.55C879.372,2919.01 872.105,2901.33 878.444,2883.57Z" style="fill:white;fill-rule:nonzero;"/>
        </g>
        <g transform="matrix(4.16667,0,0,4.16667,24273.5,-9151.37)">
            <path d="M877.104,2838C914.927,2907.84 1074.4,2903.23 1102.04,2835.91C1106.88,2860.46 1097.18,2877.99 1077.79,2891.14C1032.96,2921.56 947.54,2921.85 902.497,2891.86C883.985,2879.54 872.761,2863.65 877.104,2838Z" style="fill:white;fill-rule:nonzero;"/>
        </g>
        <g transform="matrix(4.16667,0,0,4.16667,24273.5,-9151.37)">
            <path d="M1103.32,2717.15C1103.32,2751.83 1052.48,2779.95 989.771,2779.95C927.061,2779.95 876.224,2751.83 876.224,2717.15C876.224,2682.47 927.061,2654.35 989.771,2654.35C1052.48,2654.35 1103.32,2682.47 1103.32,2717.15Z" style="fill:white;fill-rule:nonzero;"/>
        </g>
    </g>
</svg>
