<?xml version="1.0" encoding="UTF-8" standalone="no"?>
<!DOCTYPE svg PUBLIC "-//W3C//DTD SVG 1.1//EN" "http://www.w3.org/Graphics/SVG/1.1/DTD/svg11.dtd">
<svg width="100%" height="100%" viewBox="0 0 2061 2064" version="1.1" xmlns="http://www.w3.org/2000/svg" xmlns:xlink="http://www.w3.org/1999/xlink" xml:space="preserve" xmlns:serif="http://www.serif.com/" style="fill-rule:evenodd;clip-rule:evenodd;stroke-linejoin:round;stroke-miterlimit:2;">
    <g transform="matrix(1,0,0,1,-24726.6,-4210.12)">
        <g transform="matrix(4.16667,0,0,4.16667,8961.07,-1345.63)">
            <path d="M4278.36,1581.42C4278.36,1718.01 4167.63,1828.73 4031.05,1828.73C3894.46,1828.73 3783.74,1718.01 3783.74,1581.42C3783.74,1444.83 3894.46,1334.11 4031.05,1334.11C4167.63,1334.11 4278.36,1444.83 4278.36,1581.42Z" style="fill:rgb(0,124,194);fill-rule:nonzero;"/>
        </g>
        <g transform="matrix(4.16667,0,0,4.16667,8961.07,-1345.63)">
            <path d="M4177.71,1380.74C4176.98,1380.71 4176.22,1380.68 4175.48,1380.65C4134.85,1351.37 4084.96,1334.11 4031.05,1334.11C3980.16,1334.11 3932.86,1349.48 3893.54,1375.83C3933.07,1349.04 3980.78,1333.38 4032.13,1333.38C4086.55,1333.38 4136.87,1350.96 4177.71,1380.74Z" style="fill:rgb(223,223,222);fill-rule:nonzero;"/>
        </g>
        <g transform="matrix(4.16667,0,0,4.16667,8961.07,-1345.63)">
            <path d="M4004.46,1453.37C4004.03,1453.75 4003.63,1454.15 4003.24,1454.55L3977.96,1425.67C3971.96,1418.82 3961.55,1418.13 3954.7,1424.13L3868.32,1499.74C3861.47,1505.73 3860.78,1516.15 3866.78,1523L3942.39,1609.37C3948.38,1616.22 3958.8,1616.92 3965.65,1610.92L3994.52,1585.64C3988.74,1577.74 3989.87,1566.59 3997.37,1560.02C4004.88,1553.45 4016.08,1553.81 4023.15,1560.59L4052.02,1535.31C4058.87,1529.31 4059.56,1518.9 4053.57,1512.05L4028.29,1483.17C4028.74,1482.84 4029.19,1482.49 4029.62,1482.11C4037.55,1475.17 4038.36,1463.1 4031.41,1455.17C4024.46,1447.23 4012.4,1446.43 4004.46,1453.37Z" style="fill:white;fill-rule:nonzero;"/>
        </g>
        <g transform="matrix(4.16667,0,0,4.16667,8961.07,-1345.63)">
            <path d="M4016.68,1610.86C4017.07,1611.29 4017.46,1611.69 4017.87,1612.07L3989.31,1637.7C3982.54,1643.78 3981.97,1654.21 3988.05,1660.98L4064.72,1746.42C4070.8,1753.19 4081.23,1753.75 4088,1747.67L4173.44,1671C4180.21,1664.92 4180.78,1654.5 4174.7,1647.72L4149.06,1619.16C4141.23,1625.04 4130.07,1624.05 4123.41,1616.63C4116.75,1609.21 4116.97,1598 4123.66,1590.85L4098.03,1562.29C4091.95,1555.52 4081.52,1554.95 4074.75,1561.03L4046.18,1586.67C4045.85,1586.22 4045.49,1585.78 4045.11,1585.35C4038.06,1577.5 4025.99,1576.85 4018.14,1583.89C4010.29,1590.94 4009.64,1603.01 4016.68,1610.86Z" style="fill:white;fill-rule:nonzero;"/>
        </g>
    </g>
</svg>
