<?xml version="1.0" encoding="UTF-8" standalone="no"?>
<!DOCTYPE svg PUBLIC "-//W3C//DTD SVG 1.1//EN" "http://www.w3.org/Graphics/SVG/1.1/DTD/svg11.dtd">
<svg width="100%" height="100%" viewBox="0 0 2061 2066" version="1.1" xmlns="http://www.w3.org/2000/svg" xmlns:xlink="http://www.w3.org/1999/xlink" xml:space="preserve" xmlns:serif="http://www.serif.com/" style="fill-rule:evenodd;clip-rule:evenodd;stroke-linejoin:round;stroke-miterlimit:2;">
    <g transform="matrix(1,0,0,1,-15765.6,-8080.75)">
        <g transform="matrix(4.16667,0,0,4.16667,0,0)">
            <path d="M4278.36,2187.79C4278.36,2324.37 4167.63,2435.1 4031.05,2435.1C3894.46,2435.1 3783.74,2324.37 3783.74,2187.79C3783.74,2051.2 3894.46,1940.48 4031.05,1940.48C4167.63,1940.48 4278.36,2051.2 4278.36,2187.79Z" style="fill:rgb(22,124,193);fill-rule:nonzero;"/>
        </g>
        <g transform="matrix(4.16667,0,0,4.16667,0,0)">
            <path d="M3855.69,2013.4C3900.56,1967.72 3963.04,1939.38 4032.13,1939.38C4086.55,1939.38 4136.87,1956.96 4177.71,1986.74C4176.78,1986.7 4175.87,1986.66 4174.95,1986.63C4134.41,1957.58 4084.73,1940.48 4031.05,1940.48C3962.5,1940.48 3900.48,1968.35 3855.69,2013.4Z" style="fill:rgb(223,223,222);fill-rule:nonzero;"/>
        </g>
        <g transform="matrix(4.16667,0,0,4.16667,0,0)">
            <path d="M4189.27,2187.49C4189.27,2274.88 4118.43,2345.72 4031.05,2345.72C3943.66,2345.72 3872.82,2274.88 3872.82,2187.49C3872.82,2100.11 3943.66,2029.27 4031.05,2029.27C4118.43,2029.27 4189.27,2100.11 4189.27,2187.49Z" style="fill:white;fill-rule:nonzero;"/>
        </g>
        <g transform="matrix(4.16667,0,0,4.16667,0,0)">
            <path d="M4082.66,2118.41C4076.55,2114.73 4068.58,2116.71 4064.9,2122.8C4061.2,2128.9 4063.16,2136.88 4069.28,2140.59C4090.39,2153.34 4102.89,2176.1 4101.9,2199.98C4100.37,2236.9 4067.86,2265.69 4029.36,2264.24C4010.2,2263.49 3992.64,2255.49 3979.92,2241.71C3967.93,2228.72 3961.71,2212.01 3962.43,2194.66C3963.32,2173.26 3974.97,2153.38 3993.6,2141.5C3996.52,2139.64 3998.53,2136.75 3999.28,2133.38C4000.02,2130 3999.41,2126.53 3997.55,2123.63C3995.69,2120.71 3992.81,2118.69 3989.43,2117.94C3986.05,2117.19 3982.59,2117.8 3979.67,2119.66C3953.91,2136.09 3937.79,2163.73 3936.55,2193.59C3935.55,2217.86 3944.19,2241.19 3960.88,2259.28C3978.3,2278.16 4002.26,2289.11 4028.34,2290.12C4029.64,2290.17 4030.93,2290.19 4032.21,2290.19C4083.73,2290.19 4125.71,2251.04 4127.78,2201.05C4129.16,2167.72 4111.88,2136.06 4082.66,2118.41Z" style="fill:rgb(22,124,193);fill-rule:nonzero;"/>
        </g>
        <g transform="matrix(4.16667,0,0,4.16667,0,0)">
            <path d="M4032.5,2194.7C4039.64,2194.7 4046,2188.89 4046,2181.75L4046,2079.82C4046,2072.67 4039.64,2066.86 4032.5,2066.86C4025.36,2066.86 4019,2072.67 4019,2079.82L4019,2181.75C4019,2188.89 4025.36,2194.7 4032.5,2194.7Z" style="fill:rgb(22,124,193);fill-rule:nonzero;"/>
        </g>
    </g>
</svg>
