<?xml version="1.0" encoding="UTF-8" standalone="no"?>
<!DOCTYPE svg PUBLIC "-//W3C//DTD SVG 1.1//EN" "http://www.w3.org/Graphics/SVG/1.1/DTD/svg11.dtd">
<svg width="100%" height="100%" viewBox="0 0 2061 2064" version="1.1" xmlns="http://www.w3.org/2000/svg" xmlns:xlink="http://www.w3.org/1999/xlink" xml:space="preserve" xmlns:serif="http://www.serif.com/" style="fill-rule:evenodd;clip-rule:evenodd;stroke-linejoin:round;stroke-miterlimit:2;">
    <g transform="matrix(1,0,0,1,-27654.8,-6800.91)">
        <g transform="matrix(4.16667,0,0,4.16667,27109.7,1245.16)">
            <path d="M625.446,1581.42C625.446,1718.01 514.721,1828.73 378.135,1828.73C241.549,1828.73 130.824,1718.01 130.824,1581.42C130.824,1444.83 241.549,1334.11 378.135,1334.11C514.721,1334.11 625.446,1444.83 625.446,1581.42Z" style="fill:rgb(0,124,194);fill-rule:nonzero;"/>
        </g>
        <g transform="matrix(4.16667,0,0,4.16667,27109.7,1245.16)">
            <path d="M130.825,1582.34C130.822,1581.79 130.82,1581.24 130.82,1580.69C130.82,1444.1 241.55,1333.38 378.13,1333.38C432.55,1333.38 482.87,1350.96 523.71,1380.74C523.343,1380.72 523.003,1380.71 522.637,1380.7C481.988,1351.38 432.081,1334.11 378.135,1334.11C241.549,1334.11 130.824,1444.83 130.824,1581.42C130.824,1581.73 130.824,1582.03 130.825,1582.34Z" style="fill:rgb(223,223,222);fill-rule:nonzero;"/>
        </g>
        <g transform="matrix(4.16667,0,0,4.16667,27109.7,1245.16)">
            <path d="M332.11,1605.47C297.271,1610.41 265.021,1586.18 260.077,1551.34C255.134,1516.5 279.368,1484.25 314.208,1479.3C349.047,1474.36 381.297,1498.6 386.241,1533.44C391.185,1568.27 366.95,1600.53 332.11,1605.47ZM411.87,1534.98L433.217,1529.54L423.877,1492.93L400.796,1498.82C395.547,1489.47 388.696,1481.23 380.649,1474.43L391.896,1455.48L359.405,1436.2L347.249,1456.68C337.254,1453.86 326.63,1452.76 315.756,1453.68L310.31,1432.33L273.7,1441.67L279.589,1464.75C270.242,1470 262.004,1476.85 255.202,1484.9L236.249,1473.65L216.968,1506.14L237.451,1518.3C234.636,1528.29 233.531,1538.92 234.448,1549.79L213.101,1555.24L222.441,1591.85L245.522,1585.96C250.771,1595.3 257.622,1603.54 265.668,1610.34L254.422,1629.3L286.913,1648.58L299.069,1628.09C309.064,1630.91 319.687,1632.01 330.561,1631.1L336.008,1652.45L372.618,1643.1L366.729,1620.02C376.077,1614.77 384.314,1607.92 391.116,1599.88L410.068,1611.12L429.35,1578.63L408.866,1566.48C411.681,1556.48 412.787,1545.86 411.87,1534.98Z" style="fill:white;fill-rule:nonzero;"/>
        </g>
        <g transform="matrix(4.16667,0,0,4.16667,27109.7,1245.16)">
            <path d="M472.781,1700.04C450.178,1703.25 429.256,1687.52 426.048,1664.92C422.841,1642.32 438.564,1621.39 461.167,1618.19C483.77,1614.98 504.693,1630.7 507.9,1653.3C511.107,1675.91 495.384,1696.83 472.781,1700.04ZM524.527,1654.31L538.377,1650.78L532.317,1627.02L517.343,1630.85C513.937,1624.78 509.493,1619.44 504.272,1615.02L511.568,1602.73L490.489,1590.22L482.603,1603.51C476.119,1601.68 469.226,1600.96 462.171,1601.56L458.638,1587.71L434.887,1593.77L438.707,1608.74C432.643,1612.15 427.298,1616.59 422.885,1621.81L410.59,1614.52L398.081,1635.6L411.37,1643.48C409.543,1649.97 408.826,1656.86 409.421,1663.91L395.572,1667.45L401.631,1691.2L416.606,1687.38C420.011,1693.44 424.456,1698.79 429.676,1703.2L422.379,1715.5L443.459,1728.01L451.345,1714.72C457.829,1716.54 464.722,1717.26 471.777,1716.66L475.31,1730.51L499.061,1724.45L495.241,1709.48C501.305,1706.08 506.65,1701.63 511.063,1696.41L523.357,1703.71L535.868,1682.63L522.578,1674.74C524.405,1668.26 525.122,1661.36 524.527,1654.31Z" style="fill:white;fill-rule:nonzero;"/>
        </g>
    </g>
</svg>
