<?xml version="1.0" encoding="UTF-8" standalone="no"?>
<!DOCTYPE svg PUBLIC "-//W3C//DTD SVG 1.1//EN" "http://www.w3.org/Graphics/SVG/1.1/DTD/svg11.dtd">
<svg width="100%" height="100%" viewBox="0 0 2068 2063" version="1.1" xmlns="http://www.w3.org/2000/svg" xmlns:xlink="http://www.w3.org/1999/xlink" xml:space="preserve" xmlns:serif="http://www.serif.com/" style="fill-rule:evenodd;clip-rule:evenodd;stroke-linejoin:round;stroke-miterlimit:2;">
    <g transform="matrix(1,0,0,1,-37139.1,-1458.55)">
        <g transform="matrix(4.16667,0,0,4.16667,31527.3,-9151.37)">
            <path d="M1843.08,2794.15C1843.08,2930.74 1732.36,3041.46 1595.77,3041.46C1459.19,3041.46 1348.46,2930.74 1348.46,2794.15C1348.46,2657.57 1459.19,2546.84 1595.77,2546.84C1732.36,2546.84 1843.08,2657.57 1843.08,2794.15Z" style="fill:rgb(0,124,194);fill-rule:nonzero;"/>
        </g>
        <g transform="matrix(4.16667,0,0,4.16667,31527.3,-9151.37)">
            <path d="M1374,2906.51C1356.62,2872.68 1346.82,2834.33 1346.82,2793.69C1346.82,2657.1 1457.55,2546.38 1594.13,2546.38C1617.68,2546.38 1640.47,2549.67 1662.05,2555.82C1640.95,2549.97 1618.73,2546.84 1595.77,2546.84C1459.19,2546.84 1348.46,2657.57 1348.46,2794.15C1348.46,2833.6 1357.7,2870.9 1374.13,2903.99C1374.03,2905.53 1374,2906.4 1374,2906.51Z" style="fill:rgb(223,223,222);fill-rule:nonzero;"/>
        </g>
        <g transform="matrix(4.16667,0,0,4.16667,31527.3,-9151.37)">
            <path d="M1677.95,2726.86C1677.01,2726.86 1676.08,2726.88 1675.16,2726.92L1675.16,2726.86C1675.16,2692.6 1645.11,2664.83 1608.04,2664.83C1577.76,2664.83 1552.16,2683.37 1543.81,2708.84C1535.99,2705.9 1527.44,2704.27 1518.49,2704.27C1481.42,2704.27 1451.37,2732.21 1451.37,2766.47C1451.37,2800.72 1481.42,2828.66 1518.49,2828.66L1673.33,2828.66C1674.85,2828.66 1676.4,2828.67 1677.95,2828.67C1708.32,2828.67 1732.94,2805.83 1732.94,2777.77C1732.94,2749.7 1708.32,2726.86 1677.95,2726.86Z" style="fill:white;fill-rule:nonzero;"/>
        </g>
        <g transform="matrix(4.16667,0,0,4.16667,31527.3,-9151.37)">
            <path d="M1594.56,2949.69C1555.36,2949.05 1523.67,2936.23 1497.31,2910.49C1493.11,2906.39 1491.62,2901.39 1493.25,2895.75C1494.83,2890.28 1498.59,2886.79 1504.17,2885.56C1509.42,2884.4 1513.99,2885.93 1517.81,2889.67C1522.51,2894.28 1527.55,2898.47 1533,2902.15C1545.69,2910.72 1559.57,2916.24 1574.66,2918.79C1583.8,2920.33 1592.98,2920.71 1602.17,2919.78C1626.49,2917.32 1647.57,2907.7 1665.29,2890.83C1667.76,2888.47 1670.31,2886.37 1673.75,2885.58C1679.95,2884.14 1686.46,2886.91 1689.7,2892.44C1692.93,2897.97 1692.25,2905.05 1687.79,2909.67C1680.34,2917.37 1671.96,2923.94 1662.85,2929.57C1647.1,2939.31 1630.05,2945.55 1611.73,2948.12C1605.24,2949.03 1598.68,2949.33 1594.56,2949.69Z" style="fill:white;fill-rule:nonzero;"/>
        </g>
        <g transform="matrix(4.16667,0,0,4.16667,31527.3,-9151.37)">
            <path d="M1590.28,2896.5C1569.7,2896.18 1550.31,2888.33 1534.19,2872.59C1528.33,2866.86 1528.2,2857.75 1533.8,2851.93C1539.34,2846.17 1548.49,2845.87 1554.34,2851.49C1561.95,2858.81 1570.7,2863.98 1581.1,2866.02C1598.92,2869.52 1614.69,2865.21 1628.23,2853.05C1630.76,2850.77 1633.27,2848.62 1636.72,2847.84C1642.91,2846.44 1649.34,2849.15 1652.58,2854.62C1655.85,2860.14 1655.23,2867.2 1650.8,2871.86C1644.95,2878.02 1638.15,2882.98 1630.65,2886.96C1618.62,2893.32 1605.77,2896.41 1590.28,2896.5Z" style="fill:white;fill-rule:nonzero;"/>
        </g>
    </g>
</svg>
