<?xml version="1.0" encoding="UTF-8" standalone="no"?>
<!DOCTYPE svg PUBLIC "-//W3C//DTD SVG 1.1//EN" "http://www.w3.org/Graphics/SVG/1.1/DTD/svg11.dtd">
<svg width="100%" height="100%" viewBox="0 0 2064 2061" version="1.1" xmlns="http://www.w3.org/2000/svg" xmlns:xlink="http://www.w3.org/1999/xlink" xml:space="preserve" xmlns:serif="http://www.serif.com/" style="fill-rule:evenodd;clip-rule:evenodd;stroke-linejoin:round;stroke-miterlimit:2;">
    <g transform="matrix(1,0,0,1,-5615.92,-13138.4)">
        <g transform="matrix(4.16667,0,0,4.16667,0,0)">
            <path d="M1843.08,3400.52C1843.08,3537.11 1732.36,3647.83 1595.77,3647.83C1459.19,3647.83 1348.46,3537.11 1348.46,3400.52C1348.46,3263.93 1459.19,3153.21 1595.77,3153.21C1732.36,3153.21 1843.08,3263.93 1843.08,3400.52Z" style="fill:rgb(22,124,193);fill-rule:nonzero;"/>
        </g>
        <g transform="matrix(4.16667,0,0,4.16667,0,0)">
            <path d="M1375,3513.51C1357.62,3479.68 1347.82,3441.33 1347.82,3400.69C1347.82,3286.15 1425.69,3189.8 1531.37,3161.68C1426.01,3190.01 1348.46,3286.21 1348.46,3400.52C1348.46,3440.71 1358.05,3478.66 1375.06,3512.21C1375.02,3512.99 1375,3513.43 1375,3513.51Z" style="fill:rgb(223,223,222);fill-rule:nonzero;"/>
        </g>
        <g transform="matrix(4.16667,0,0,4.16667,0,0)">
            <path d="M1621.87,3353.38L1573.56,3353.38C1566.07,3353.38 1560,3347.32 1560,3339.83L1560,3291.52C1560,3284.03 1566.07,3277.97 1573.56,3277.97L1621.87,3277.97C1629.35,3277.97 1635.42,3284.03 1635.42,3291.52L1635.42,3339.83C1635.42,3347.32 1629.35,3353.38 1621.87,3353.38Z" style="fill:white;fill-rule:nonzero;"/>
        </g>
        <g transform="matrix(4.16667,0,0,4.16667,0,0)">
            <path d="M1621.87,3499.69L1573.56,3499.69C1566.07,3499.69 1560,3493.63 1560,3486.14L1560,3437.83C1560,3430.34 1566.07,3424.28 1573.56,3424.28L1621.87,3424.28C1629.35,3424.28 1635.42,3430.34 1635.42,3437.83L1635.42,3486.14C1635.42,3493.63 1629.35,3499.69 1621.87,3499.69Z" style="fill:white;fill-rule:nonzero;"/>
        </g>
        <g transform="matrix(4.16667,0,0,4.16667,0,0)">
            <path d="M1492.1,3499.69L1443.79,3499.69C1436.31,3499.69 1430.24,3493.63 1430.24,3486.14L1430.24,3437.83C1430.24,3430.34 1436.31,3424.28 1443.79,3424.28L1492.1,3424.28C1499.59,3424.28 1505.66,3430.34 1505.66,3437.83L1505.66,3486.14C1505.66,3493.63 1499.59,3499.69 1492.1,3499.69Z" style="fill:white;fill-rule:nonzero;"/>
        </g>
        <g transform="matrix(4.16667,0,0,4.16667,0,0)">
            <path d="M1753.37,3499.69L1705.06,3499.69C1697.58,3499.69 1691.51,3493.63 1691.51,3486.14L1691.51,3437.83C1691.51,3430.34 1697.58,3424.28 1705.06,3424.28L1753.37,3424.28C1760.86,3424.28 1766.93,3430.34 1766.93,3437.83L1766.93,3486.14C1766.93,3493.63 1760.86,3499.69 1753.37,3499.69Z" style="fill:white;fill-rule:nonzero;"/>
        </g>
        <g transform="matrix(4.16667,0,0,4.16667,0,0)">
            <path d="M1462.91,3387.28C1462.91,3384.96 1464.79,3383.08 1467.11,3383.08L1730.06,3383.08C1732.38,3383.08 1734.26,3384.96 1734.26,3387.28C1734.26,3389.6 1732.38,3391.48 1730.06,3391.48L1467.11,3391.48C1464.79,3391.48 1462.91,3389.6 1462.91,3387.28Z" style="fill:white;fill-rule:nonzero;"/>
        </g>
        <g transform="matrix(4.16667,0,0,4.16667,0,0)">
            <path d="M1588.5,3400.16L1588.5,3374.4C1588.5,3371.16 1591.14,3368.52 1594.38,3368.52L1602.78,3368.52C1606.03,3368.52 1608.66,3371.16 1608.66,3374.4L1608.66,3400.16C1608.66,3403.4 1606.03,3406.03 1602.78,3406.03L1594.38,3406.03C1591.14,3406.03 1588.5,3403.4 1588.5,3400.16Z" style="fill:white;fill-rule:nonzero;"/>
        </g>
        <g transform="matrix(4.16667,0,0,4.16667,0,0)">
            <path d="M1462.91,3412.86L1462.91,3387.63C1462.91,3385.48 1464.65,3383.73 1466.81,3383.73L1469.09,3383.73C1471.24,3383.73 1472.99,3385.48 1472.99,3387.63L1472.99,3412.86C1472.99,3415.02 1471.24,3416.76 1469.09,3416.76L1466.81,3416.76C1464.65,3416.76 1462.91,3415.02 1462.91,3412.86Z" style="fill:white;fill-rule:nonzero;"/>
        </g>
        <g transform="matrix(4.16667,0,0,4.16667,0,0)">
            <path d="M1724.18,3412.86L1724.18,3387.63C1724.18,3385.48 1725.92,3383.73 1728.08,3383.73L1730.35,3383.73C1732.51,3383.73 1734.26,3385.48 1734.26,3387.63L1734.26,3412.86C1734.26,3415.02 1732.51,3416.76 1730.35,3416.76L1728.08,3416.76C1725.92,3416.76 1724.18,3415.02 1724.18,3412.86Z" style="fill:white;fill-rule:nonzero;"/>
        </g>
    </g>
</svg>
