<?xml version="1.0" encoding="UTF-8" standalone="no"?>
<!DOCTYPE svg PUBLIC "-//W3C//DTD SVG 1.1//EN" "http://www.w3.org/Graphics/SVG/1.1/DTD/svg11.dtd">
<svg width="100%" height="100%" viewBox="0 0 2061 2061" version="1.1" xmlns="http://www.w3.org/2000/svg" xmlns:xlink="http://www.w3.org/1999/xlink" xml:space="preserve" xmlns:serif="http://www.serif.com/" style="fill-rule:evenodd;clip-rule:evenodd;stroke-linejoin:round;stroke-miterlimit:2;">
    <g transform="matrix(1,0,0,1,-3081.84,-10611.8)">
        <g transform="matrix(4.16667,0,0,4.16667,0,0)">
            <path d="M1234.26,2794.15C1234.26,2930.74 1123.54,3041.46 986.953,3041.46C850.367,3041.46 739.642,2930.74 739.642,2794.15C739.642,2657.57 850.367,2546.84 986.953,2546.84C1123.54,2546.84 1234.26,2657.57 1234.26,2794.15Z" style="fill:rgb(22,124,193);fill-rule:nonzero;"/>
        </g>
        <g transform="matrix(4.16667,0,0,4.16667,0,0)">
            <path d="M1028.26,2683.88L996.046,2628.06C991.812,2620.72 984.884,2620.72 980.648,2628.06L948.413,2683.87C944.179,2691.2 947.641,2697.2 956.111,2697.2L965.988,2697.2L965.979,2755.88C965.978,2768.22 975.982,2778.23 988.323,2778.23C1000.67,2778.23 1010.67,2768.23 1010.68,2755.88L1010.68,2697.21L1020.56,2697.21C1029.03,2697.21 1032.5,2691.21 1028.26,2683.88Z" style="fill:white;fill-rule:nonzero;"/>
        </g>
        <g transform="matrix(4.16667,0,0,4.16667,0,0)">
            <path d="M948.412,2907.3L980.629,2963.12C984.862,2970.46 991.791,2970.46 996.026,2963.13L1028.26,2907.31C1032.5,2899.98 1029.03,2893.98 1020.56,2893.98L1010.69,2893.98L1010.7,2835.31C1010.7,2822.96 1000.69,2812.96 988.351,2812.95C976.008,2812.95 966.001,2822.96 965.999,2835.3L965.991,2893.97L956.112,2893.97C947.644,2893.97 944.179,2899.97 948.412,2907.3Z" style="fill:white;fill-rule:nonzero;"/>
        </g>
        <g transform="matrix(4.16667,0,0,4.16667,0,0)">
            <path d="M875.993,2757.1L820.171,2789.32C812.836,2793.55 812.836,2800.48 820.168,2804.72L875.981,2836.95C883.315,2841.19 889.315,2837.72 889.317,2829.25L889.318,2819.38L947.989,2819.39C960.332,2819.39 970.339,2809.38 970.341,2797.04C970.343,2784.7 960.339,2774.69 947.997,2774.69L889.325,2774.68L889.327,2764.8C889.328,2756.33 883.327,2752.87 875.993,2757.1Z" style="fill:white;fill-rule:nonzero;"/>
        </g>
        <g transform="matrix(4.16667,0,0,4.16667,0,0)">
            <path d="M1097.91,2836.95L1153.74,2804.74C1161.07,2800.5 1161.07,2793.58 1153.74,2789.34L1097.93,2757.1C1090.59,2752.87 1084.59,2756.33 1084.59,2764.8L1084.59,2774.68L1025.92,2774.67C1013.57,2774.67 1003.57,2784.67 1003.57,2797.01C1003.56,2809.36 1013.57,2819.36 1025.91,2819.37L1084.58,2819.38L1084.58,2829.25C1084.58,2837.72 1090.58,2841.19 1097.91,2836.95Z" style="fill:white;fill-rule:nonzero;"/>
        </g>
    </g>
</svg>
