<?xml version="1.0" encoding="UTF-8" standalone="no"?>
<!DOCTYPE svg PUBLIC "-//W3C//DTD SVG 1.1//EN" "http://www.w3.org/Graphics/SVG/1.1/DTD/svg11.dtd">
<svg width="100%" height="100%" viewBox="0 0 2062 2061" version="1.1" xmlns="http://www.w3.org/2000/svg" xmlns:xlink="http://www.w3.org/1999/xlink" xml:space="preserve" xmlns:serif="http://www.serif.com/" style="fill-rule:evenodd;clip-rule:evenodd;stroke-linejoin:round;stroke-miterlimit:2;">
    <g transform="matrix(1,0,0,1,-37257.2,-4323.15)">
        <g transform="matrix(4.16667,0,0,4.16667,24028.8,-8815.23)">
            <path d="M3669.54,3400.52C3669.54,3537.11 3558.81,3647.83 3422.23,3647.83C3285.64,3647.83 3174.92,3537.11 3174.92,3400.52C3174.92,3263.93 3285.64,3153.21 3422.23,3153.21C3558.81,3153.21 3669.54,3263.93 3669.54,3400.52Z" style="fill:rgb(0,124,194);fill-rule:nonzero;"/>
        </g>
        <g transform="matrix(4.16667,0,0,4.16667,24028.8,-8815.23)">
            <path d="M3202,3513.51C3184.62,3479.68 3174.82,3441.33 3174.82,3400.69C3174.82,3356.51 3186.4,3315.04 3206.7,3279.15C3186.46,3315 3174.92,3356.41 3174.92,3400.52C3174.92,3441.1 3184.69,3479.4 3202.01,3513.19C3202.01,3513.37 3202,3513.47 3202,3513.51Z" style="fill:rgb(223,223,222);fill-rule:nonzero;"/>
        </g>
        <g transform="matrix(4.16667,0,0,4.16667,24028.8,-8815.23)">
            <path d="M3410.94,3411.92L3374.2,3348.26C3369.38,3339.9 3361.47,3339.9 3356.64,3348.26L3319.88,3411.9C3315.06,3420.27 3319,3427.11 3328.66,3427.11L3339.93,3427.11L3339.92,3494.02C3339.91,3508.1 3351.32,3519.51 3365.4,3519.51C3379.47,3519.51 3390.88,3508.1 3390.89,3494.03L3390.9,3427.12L3402.16,3427.12C3411.82,3427.12 3415.77,3420.28 3410.94,3411.92Z" style="fill:white;fill-rule:nonzero;"/>
        </g>
        <g transform="matrix(4.16667,0,0,4.16667,24028.8,-8815.23)">
            <path d="M3524.94,3342.92L3488.2,3279.26C3483.38,3270.9 3475.47,3270.9 3470.64,3279.26L3433.88,3342.9C3429.06,3351.27 3433,3358.11 3442.66,3358.11L3453.93,3358.11L3453.92,3494.02C3453.91,3508.1 3465.32,3519.51 3479.4,3519.51C3493.47,3519.51 3504.88,3508.1 3504.89,3494.03L3504.9,3358.12L3516.16,3358.12C3525.82,3358.12 3529.77,3351.28 3524.94,3342.92Z" style="fill:white;fill-rule:nonzero;"/>
        </g>
    </g>
</svg>
