<?xml version="1.0" encoding="UTF-8" standalone="no"?>
<!DOCTYPE svg PUBLIC "-//W3C//DTD SVG 1.1//EN" "http://www.w3.org/Graphics/SVG/1.1/DTD/svg11.dtd">
<svg width="100%" height="100%" viewBox="0 0 2061 2061" version="1.1" xmlns="http://www.w3.org/2000/svg" xmlns:xlink="http://www.w3.org/1999/xlink" xml:space="preserve" xmlns:serif="http://www.serif.com/" style="fill-rule:evenodd;clip-rule:evenodd;stroke-linejoin:round;stroke-miterlimit:2;">
    <g transform="matrix(1,0,0,1,-8155.33,-5558.79)">
        <g transform="matrix(4.16667,0,0,4.16667,0,0)">
            <path d="M2451.9,1581.42C2451.9,1718.01 2341.18,1828.73 2204.59,1828.73C2068,1828.73 1957.28,1718.01 1957.28,1581.42C1957.28,1444.83 2068,1334.11 2204.59,1334.11C2341.18,1334.11 2451.9,1444.83 2451.9,1581.42Z" style="fill:rgb(22,124,193);fill-rule:nonzero;"/>
        </g>
        <g transform="matrix(4.16667,0,0,4.16667,0,0)">
            <path d="M2131.22,1598.97C2085.78,1598.97 2048.95,1562.14 2048.95,1516.7C2048.95,1471.27 2085.78,1434.44 2131.22,1434.44C2176.65,1434.44 2213.49,1471.27 2213.49,1516.7C2213.49,1562.14 2176.65,1598.97 2131.22,1598.97ZM2131.22,1421.64C2078.72,1421.64 2036.16,1464.2 2036.16,1516.7C2036.16,1569.2 2078.72,1611.76 2131.22,1611.76C2183.72,1611.76 2226.28,1569.2 2226.28,1516.7C2226.28,1464.2 2183.72,1421.64 2131.22,1421.64Z" style="fill:white;fill-rule:nonzero;"/>
        </g>
        <g transform="matrix(4.16667,0,0,4.16667,0,0)">
            <path d="M2184.44,1588.71L2204.76,1570.49L2350.87,1690.62L2322.33,1719.6L2184.44,1588.71Z" style="fill:white;fill-rule:nonzero;"/>
        </g>
    </g>
</svg>
