<?xml version="1.0" encoding="UTF-8" standalone="no"?>
<!DOCTYPE svg PUBLIC "-//W3C//DTD SVG 1.1//EN" "http://www.w3.org/Graphics/SVG/1.1/DTD/svg11.dtd">
<svg width="100%" height="100%" viewBox="0 0 2061 2061" version="1.1" xmlns="http://www.w3.org/2000/svg" xmlns:xlink="http://www.w3.org/1999/xlink" xml:space="preserve" xmlns:serif="http://www.serif.com/" style="fill-rule:evenodd;clip-rule:evenodd;stroke-linejoin:round;stroke-miterlimit:2;">
    <g transform="matrix(1,0,0,1,-12955.9,-7016.2)">
        <g transform="matrix(4.16667,0,0,4.16667,-5346.41,6510.46)">
            <path d="M4887.18,368.689C4887.18,505.275 4776.45,616 4639.86,616C4503.28,616 4392.55,505.275 4392.55,368.689C4392.55,232.102 4503.28,121.378 4639.86,121.378C4776.45,121.378 4887.18,232.102 4887.18,368.689Z" style="fill:rgb(0,124,194);fill-rule:nonzero;"/>
        </g>
        <g transform="matrix(4.16667,0,0,4.16667,-5346.41,6510.46)">
            <path d="M4786.71,168.74C4786.26,168.721 4785.81,168.702 4785.36,168.684C4744.75,139.089 4694.79,121.567 4640.74,121.38L4641.13,121.38C4695.55,121.38 4745.87,138.96 4786.71,168.74Z" style="fill:rgb(223,223,222);fill-rule:nonzero;"/>
        </g>
        <g transform="matrix(4.16667,0,0,4.16667,-5346.41,6510.46)">
            <path d="M4735.04,319.608C4735.04,267.751 4693,225.712 4641.15,225.712C4589.29,225.712 4547.25,267.751 4547.25,319.608C4547.25,356.345 4568.36,388.149 4599.1,403.574L4599.1,425.024C4599.1,430.116 4603.08,434.239 4607.99,434.239L4677.33,434.239C4682.24,434.239 4686.22,430.116 4686.22,425.024L4686.22,401.992C4715.32,386.04 4735.04,355.129 4735.04,319.608Z" style="fill:white;fill-rule:nonzero;"/>
        </g>
        <g transform="matrix(4.16667,0,0,4.16667,-5346.41,6510.46)">
            <path d="M4608.96,322.836C4607.84,322.836 4606.74,323.063 4605.72,323.566C4603.07,324.874 4602.08,327.446 4601.72,329.373C4600.98,333.28 4602.22,337.799 4604.79,340.617C4609.4,345.65 4616.71,347.518 4623.28,348.396C4623.06,342.052 4622.75,334.932 4619.5,329.439C4617.35,325.805 4613,322.836 4608.96,322.836ZM4670.25,324.722C4664.24,324.722 4658.1,329.354 4656.16,335.745C4654.95,339.693 4655.6,344.05 4656.34,348.66C4659.29,348.352 4662.23,347.956 4665.16,347.471C4670.73,346.549 4677.48,344.871 4680.26,340.042C4681.63,337.66 4681.63,334.571 4680.26,331.567C4678.68,328.11 4675.67,325.566 4672.41,324.928C4671.7,324.789 4670.97,324.722 4670.25,324.722ZM4628.01,451.066C4626.14,451.066 4624.59,449.585 4624.53,447.703C4623.98,432.165 4623.94,414.862 4623.91,398.129C4623.88,383.817 4623.85,369.087 4623.5,355.449C4615.43,354.482 4606,352.267 4599.65,345.319C4595.61,340.896 4593.73,334.131 4594.87,328.083C4595.8,323.153 4598.56,319.328 4602.64,317.314C4611.15,313.117 4621.13,318.5 4625.5,325.893C4629.72,333.026 4630.02,341.629 4630.26,348.541C4630.27,348.721 4630.28,348.902 4630.28,349.083C4636.64,349.539 4643.01,349.586 4649.37,349.223C4648.57,344.183 4647.88,338.987 4649.49,333.712C4652.72,323.113 4663.6,316.101 4673.75,318.086C4679.18,319.149 4684.11,323.207 4686.6,328.676C4688.92,333.753 4688.8,339.163 4686.3,343.519C4682.06,350.884 4673.38,353.175 4666.3,354.348C4663.3,354.844 4660.29,355.252 4657.28,355.571C4657.32,356.032 4657.35,356.495 4657.38,356.959C4658.8,384.883 4659.9,419.271 4660.18,444.829C4660.2,446.754 4658.66,448.182 4656.73,448.182L4656.69,448.182C4654.79,448.182 4653.23,446.817 4653.21,444.906C4652.93,419.432 4651.83,385.069 4650.41,357.229C4650.39,356.841 4650.37,356.496 4650.33,356.106C4643.73,356.507 4637.1,356.508 4630.49,356.063C4630.82,369.551 4630.85,384.034 4630.88,398.104C4630.91,414.781 4630.95,432.031 4631.49,447.452C4631.56,449.375 4630.06,450.993 4628.13,451.06L4628.01,451.066Z" style="fill:rgb(0,124,194);fill-rule:nonzero;"/>
        </g>
        <g transform="matrix(4.16667,0,0,4.16667,-5346.41,6510.46)">
            <path d="M4596.19,478.132C4599.57,495.404 4619.26,508.665 4643.06,508.665C4666.86,508.665 4686.55,495.404 4689.92,478.132L4596.19,478.132Z" style="fill:white;fill-rule:nonzero;"/>
        </g>
        <g transform="matrix(4.16667,0,0,4.16667,-5346.41,6510.46)">
            <path d="M4697.56,469.338C4697.56,474.685 4693.09,479.018 4687.58,479.018L4598.4,479.018C4592.88,479.018 4588.42,474.685 4588.42,469.338C4588.42,463.993 4592.88,459.658 4598.4,459.658L4687.58,459.658C4693.09,459.658 4697.56,463.993 4697.56,469.338Z" style="fill:white;fill-rule:nonzero;"/>
        </g>
        <g transform="matrix(4.16667,0,0,4.16667,-5346.41,6510.46)">
            <path d="M4697.16,450.981C4697.16,456.326 4692.69,460.658 4687.18,460.658L4598,460.658C4592.48,460.658 4588.02,456.326 4588.02,450.981C4588.02,445.636 4592.48,441.301 4598,441.301L4687.18,441.301C4692.69,441.301 4697.16,445.636 4697.16,450.981Z" style="fill:white;fill-rule:nonzero;"/>
        </g>
        <g transform="matrix(4.16667,0,0,4.16667,-5346.41,6510.46)">
            <path d="M4697.29,432.623C4697.29,437.97 4692.83,442.301 4687.31,442.301L4598.13,442.301C4592.61,442.301 4588.15,437.97 4588.15,432.623C4588.15,427.278 4592.61,422.943 4598.13,422.943L4687.31,422.943C4692.83,422.943 4697.29,427.278 4697.29,432.623Z" style="fill:white;fill-rule:nonzero;"/>
        </g>
    </g>
</svg>
