<?xml version="1.0" encoding="UTF-8" standalone="no"?>
<!DOCTYPE svg PUBLIC "-//W3C//DTD SVG 1.1//EN" "http://www.w3.org/Graphics/SVG/1.1/DTD/svg11.dtd">
<svg width="100%" height="100%" viewBox="0 0 2061 2064" version="1.1" xmlns="http://www.w3.org/2000/svg" xmlns:xlink="http://www.w3.org/1999/xlink" xml:space="preserve" xmlns:serif="http://www.serif.com/" style="fill-rule:evenodd;clip-rule:evenodd;stroke-linejoin:round;stroke-miterlimit:2;">
    <g transform="matrix(1,0,0,1,-16377.4,-2074.84)">
        <g transform="matrix(4.16667,0,0,4.16667,-1924.86,-3480.91)">
            <path d="M4887.18,1581.42C4887.18,1718.01 4776.45,1828.73 4639.86,1828.73C4503.28,1828.73 4392.55,1718.01 4392.55,1581.42C4392.55,1444.83 4503.28,1334.11 4639.86,1334.11C4776.45,1334.11 4887.18,1444.83 4887.18,1581.42Z" style="fill:rgb(0,124,194);fill-rule:nonzero;"/>
        </g>
        <g transform="matrix(4.16667,0,0,4.16667,-1924.86,-3480.91)">
            <path d="M4786.71,1380.74C4785.91,1380.71 4785.09,1380.67 4784.29,1380.64C4743.66,1351.36 4693.78,1334.11 4639.86,1334.11C4595.16,1334.11 4553.22,1345.97 4517.03,1366.72C4553.51,1345.52 4595.9,1333.38 4641.13,1333.38C4695.55,1333.38 4745.87,1350.96 4786.71,1380.74Z" style="fill:rgb(223,223,222);fill-rule:nonzero;"/>
        </g>
        <g transform="matrix(4.16667,0,0,4.16667,-1924.86,-3480.91)">
            <path d="M4608.64,1565.6L4608.64,1565.46L4608.67,1565.56L4608.66,1565.58L4608.64,1565.6Z" style="fill:white;fill-rule:nonzero;"/>
        </g>
        <g transform="matrix(4.16667,0,0,4.16667,-1924.86,-3480.91)">
            <path d="M4782.58,1535.23C4769.44,1480.37 4719.26,1438.83 4662.97,1436.08C4662.59,1436.05 4662.23,1436.03 4661.89,1435.99C4661.24,1436.19 4661.22,1436.18 4661.87,1435.98C4656.72,1435.36 4655.51,1432.25 4655.43,1427.79C4655.27,1419.68 4655.51,1411.56 4655.27,1403.46C4655.22,1401.82 4653.74,1400.22 4652.92,1398.61C4652.09,1400.17 4650.58,1401.71 4650.54,1403.29C4650.3,1411.81 4650.44,1420.35 4650.4,1428.88C4650.39,1432.45 4649.24,1434.77 4646.09,1435.7L4646.1,1435.71L4646.11,1435.71L4646.1,1435.71C4645.45,1435.91 4644.71,1436.04 4643.88,1436.11C4605.68,1439.33 4574.4,1455.95 4550.38,1485.74C4533.4,1506.8 4524.22,1531.09 4521.92,1559.88C4528.14,1550.54 4535.41,1545.83 4545.31,1547.17C4555.41,1548.54 4561.37,1555.26 4564.7,1564.98L4565,1564.99C4569,1552.85 4576.04,1547.38 4585.47,1547.07C4597.74,1546.66 4604.36,1553.47 4608.35,1564.89C4608.32,1565.14 4608,1565.34 4608,1565.46L4608,1565.6L4608.33,1565.58L4608.56,1565.58L4608.64,1565.55C4611.18,1556.35 4615.94,1549.7 4624.58,1547.76C4634.61,1545.51 4640.86,1549.02 4646.77,1554.89C4648.14,1556.25 4649.32,1557.84 4650.31,1559.46C4650.39,1590.09 4650.5,1620.83 4650.35,1651.58C4650.33,1655.47 4648.95,1659.22 4648.05,1663.94C4648.57,1665.14 4650.04,1666.98 4650.04,1668.82C4650.04,1672.01 4648.75,1675.18 4648.68,1678.38C4648.47,1688.15 4648.71,1697.93 4648.51,1707.71C4648.39,1713.01 4645.46,1717.47 4640.52,1718.39C4636.75,1719.09 4631.77,1718 4628.57,1715.86C4624.46,1713.12 4623.05,1708.1 4625.51,1703.1C4627.14,1699.78 4626.57,1696.97 4623.07,1696.44C4621.52,1696.2 4618.58,1698.69 4617.88,1700.55C4614.93,1708.42 4616.41,1715.85 4622.47,1721.73C4628.68,1727.76 4636.23,1729.29 4644.32,1725.91C4652.16,1722.64 4656.6,1716.48 4656.55,1708.02C4656.47,1693.11 4655.52,1678.33 4655.46,1663.43C4655.3,1629.09 4655.44,1594.5 4655.34,1560.47C4656.19,1558.6 4657.4,1556.56 4659.07,1554.81C4666.62,1546.91 4682.81,1541.04 4694.36,1559.16C4695.41,1560.81 4696,1562.7 4697,1564.8L4697,1564.98L4696.99,1564.88L4697,1564.99L4697,1564.75C4702,1552.77 4708.46,1547.14 4718.49,1546.99C4729.09,1546.84 4735.89,1552.27 4741.12,1565.38C4744.02,1555.29 4749.88,1548.27 4760.41,1547.21C4775.03,1545.74 4782.3,1554.61 4786.71,1567.52C4786,1556.42 4785.08,1545.64 4782.58,1535.23Z" style="fill:white;fill-rule:nonzero;"/>
        </g>
    </g>
</svg>
