<?xml version="1.0" encoding="UTF-8" standalone="no"?>
<!DOCTYPE svg PUBLIC "-//W3C//DTD SVG 1.1//EN" "http://www.w3.org/Graphics/SVG/1.1/DTD/svg11.dtd">
<svg width="100%" height="100%" viewBox="0 0 2061 2061" version="1.1" xmlns="http://www.w3.org/2000/svg" xmlns:xlink="http://www.w3.org/1999/xlink" xml:space="preserve" xmlns:serif="http://www.serif.com/" style="fill-rule:evenodd;clip-rule:evenodd;stroke-linejoin:round;stroke-miterlimit:2;">
    <g transform="matrix(1,0,0,1,-5618.58,-505.741)">
        <g transform="matrix(4.16667,0,0,4.16667,0,0)">
            <path d="M1843.08,368.689C1843.08,505.275 1732.36,616 1595.77,616C1459.19,616 1348.46,505.275 1348.46,368.689C1348.46,232.103 1459.19,121.378 1595.77,121.378C1732.36,121.378 1843.08,232.103 1843.08,368.689Z" style="fill:rgb(22,124,193);fill-rule:nonzero;"/>
        </g>
        <g transform="matrix(4.16667,0,0,4.16667,0,0)">
            <path d="M1620.94,505.372C1577.15,519.129 1515.89,495.892 1483.91,453.851C1447.18,405.568 1444.55,340.709 1477.29,290.587C1509.49,241.304 1569.51,216.408 1626.16,229.795C1625.08,233.583 1624.01,237.319 1622.94,241.055C1612.19,278.555 1601.01,315.941 1591.03,353.642C1588.71,362.372 1588.64,372.596 1590.66,381.418C1599.28,419.036 1609.08,456.383 1618.42,493.838C1619.38,497.677 1620.12,501.572 1620.94,505.372Z" style="fill:white;fill-rule:nonzero;"/>
        </g>
        <g transform="matrix(4.16667,0,0,4.16667,0,0)">
            <path d="M1638.84,502.504C1628.59,461.423 1618.75,422.004 1608.57,381.213C1649.27,392.876 1688.53,404.127 1728.78,415.661C1712.47,458.553 1682.66,486.756 1638.84,502.504Z" style="fill:white;fill-rule:nonzero;"/>
        </g>
        <g transform="matrix(4.16667,0,0,4.16667,0,0)">
            <path d="M1643.71,235.085C1707.61,253.917 1750.38,330.714 1733.78,397.066C1691.93,385.076 1650.11,373.091 1607.65,360.925C1619.71,318.846 1631.71,276.968 1643.71,235.085Z" style="fill:white;fill-rule:nonzero;"/>
        </g>
    </g>
</svg>
