<?xml version="1.0" encoding="UTF-8" standalone="no"?>
<!DOCTYPE svg PUBLIC "-//W3C//DTD SVG 1.1//EN" "http://www.w3.org/Graphics/SVG/1.1/DTD/svg11.dtd">
<svg width="100%" height="100%" viewBox="0 0 2066 2062" version="1.1" xmlns="http://www.w3.org/2000/svg" xmlns:xlink="http://www.w3.org/1999/xlink" xml:space="preserve" xmlns:serif="http://www.serif.com/" style="fill-rule:evenodd;clip-rule:evenodd;stroke-linejoin:round;stroke-miterlimit:2;">
    <g transform="matrix(1,0,0,1,-18471.8,-4486.1)">
        <g transform="matrix(4.16667,0,0,4.16667,17930.8,-11178)">
            <path d="M625.446,4006.89C625.446,4143.47 514.721,4254.2 378.135,4254.2C241.549,4254.2 130.824,4143.47 130.824,4006.89C130.824,3870.3 241.549,3759.58 378.135,3759.58C514.721,3759.58 625.446,3870.3 625.446,4006.89Z" style="fill:rgb(0,124,194);fill-rule:nonzero;"/>
        </g>
        <g transform="matrix(4.16667,0,0,4.16667,17930.8,-11178)">
            <path d="M157,4119.51C139.619,4085.68 129.82,4047.33 129.82,4006.69C129.82,3870.1 240.55,3759.38 377.13,3759.38C393.519,3759.38 409.532,3760.97 425.03,3764.02C409.849,3761.1 394.166,3759.58 378.135,3759.58C241.549,3759.58 130.824,3870.3 130.824,4006.89C130.824,4046.8 140.282,4084.51 157.077,4117.89C157.023,4118.87 157.003,4119.42 157,4119.51Z" style="fill:rgb(223,223,222);fill-rule:nonzero;"/>
        </g>
        <g transform="matrix(4.16667,0,0,4.16667,17930.8,-11178)">
            <path d="M384.203,4094.62L506.863,4023.82C522.979,4014.52 522.979,3999.3 506.87,3989.99L384.228,3919.16C368.113,3909.85 354.927,3917.46 354.924,3936.07L354.921,3957.78L354.906,4055.99L354.902,4077.7C354.9,4096.31 368.085,4103.92 384.203,4094.62Z" style="fill:white;fill-rule:nonzero;"/>
        </g>
        <g transform="matrix(4.16667,0,0,4.16667,17930.8,-11178)">
            <path d="M291.712,4094.62L414.373,4023.82C430.49,4014.52 430.49,3999.3 414.379,3989.99L291.737,3919.16C275.623,3909.85 262.437,3917.46 262.434,3936.07L262.431,3957.78L262.415,4055.99L262.412,4077.7C262.409,4096.31 275.595,4103.92 291.712,4094.62Z" style="fill:white;fill-rule:nonzero;"/>
        </g>
    </g>
</svg>
