<?xml version="1.0" encoding="UTF-8" standalone="no"?>
<!DOCTYPE svg PUBLIC "-//W3C//DTD SVG 1.1//EN" "http://www.w3.org/Graphics/SVG/1.1/DTD/svg11.dtd">
<svg width="100%" height="100%" viewBox="0 0 2061 2064" version="1.1" xmlns="http://www.w3.org/2000/svg" xmlns:xlink="http://www.w3.org/1999/xlink" xml:space="preserve" xmlns:serif="http://www.serif.com/" style="fill-rule:evenodd;clip-rule:evenodd;stroke-linejoin:round;stroke-miterlimit:2;">
    <g transform="matrix(1,0,0,1,-15806.8,-6701.47)">
        <g transform="matrix(4.16667,0,0,4.16667,2577.96,1145.72)">
            <path d="M3669.54,1581.42C3669.54,1718.01 3558.81,1828.73 3422.23,1828.73C3285.64,1828.73 3174.92,1718.01 3174.92,1581.42C3174.92,1444.83 3285.64,1334.11 3422.23,1334.11C3558.81,1334.11 3669.54,1444.83 3669.54,1581.42Z" style="fill:rgb(0,124,194);fill-rule:nonzero;"/>
        </g>
        <g transform="matrix(4.16667,0,0,4.16667,2577.96,1145.72)">
            <path d="M3267.3,1388.64C3309.83,1354.09 3364.06,1333.38 3423.13,1333.38C3477.55,1333.38 3527.87,1350.96 3568.71,1380.74C3568.04,1380.71 3567.34,1380.68 3566.68,1380.66C3526.04,1351.37 3476.15,1334.11 3422.23,1334.11C3363.57,1334.11 3309.69,1354.52 3267.3,1388.64Z" style="fill:rgb(223,223,222);fill-rule:nonzero;"/>
        </g>
        <g transform="matrix(4.16667,0,0,4.16667,2577.96,1145.72)">
            <path d="M3533.95,1565.49C3531.57,1546.68 3525.76,1528.26 3511.35,1515.17C3487.17,1493.19 3458.76,1480.92 3425.15,1483.48C3410.67,1484.47 3396.18,1485.31 3381.72,1486.48C3361.69,1488.09 3343.45,1494.23 3328.54,1508.4C3309.02,1526.96 3300.68,1550.23 3298.74,1576.59C3295.36,1622.61 3320.86,1654.59 3362.62,1671.29C3383.45,1679.62 3405.97,1681.74 3428.45,1681.99C3431.95,1682.03 3433.85,1682.93 3435.63,1686.16C3443.79,1701.07 3456.67,1709.38 3473.41,1711.69C3475.14,1711.93 3477.5,1711.46 3478.68,1710.37C3479.36,1709.74 3478.45,1707.12 3477.91,1705.51C3475.78,1699.03 3473.04,1692.7 3471.41,1686.1C3469.4,1678.01 3469.8,1677.99 3477.71,1676.22C3498.46,1671.58 3514.83,1661.13 3523.13,1640.71C3532.94,1616.57 3537.24,1591.38 3533.95,1565.49Z" style="fill:white;fill-rule:nonzero;"/>
        </g>
        <g transform="matrix(4.16667,0,0,4.16667,2577.96,1145.72)">
            <path d="M3479.08,1556.82L3354.4,1556.82C3349.5,1556.82 3345.49,1552.81 3345.49,1547.91C3345.49,1543.01 3349.5,1539 3354.4,1539L3479.08,1539C3483.98,1539 3487.99,1543.01 3487.99,1547.91C3487.99,1552.81 3483.98,1556.82 3479.08,1556.82Z" style="fill:rgb(11,123,163);fill-rule:nonzero;"/>
        </g>
        <g transform="matrix(4.16667,0,0,4.16667,2577.96,1145.72)">
            <path d="M3479.08,1590.33L3354.4,1590.33C3349.5,1590.33 3345.49,1586.32 3345.49,1581.42C3345.49,1576.52 3349.5,1572.51 3354.4,1572.51L3479.08,1572.51C3483.98,1572.51 3487.99,1576.52 3487.99,1581.42C3487.99,1586.32 3483.98,1590.33 3479.08,1590.33Z" style="fill:rgb(11,123,163);fill-rule:nonzero;"/>
        </g>
    </g>
</svg>
