<?xml version="1.0" encoding="UTF-8" standalone="no"?>
<!DOCTYPE svg PUBLIC "-//W3C//DTD SVG 1.1//EN" "http://www.w3.org/Graphics/SVG/1.1/DTD/svg11.dtd">
<svg width="100%" height="100%" viewBox="0 0 353 353" version="1.1" xmlns="http://www.w3.org/2000/svg" xmlns:xlink="http://www.w3.org/1999/xlink" xml:space="preserve" xmlns:serif="http://www.serif.com/" style="fill-rule:evenodd;clip-rule:evenodd;stroke-linejoin:round;stroke-miterlimit:2;">
    <g transform="matrix(1,0,0,1,-1503.07,-2815.48)">
        <g transform="matrix(1,0,0,1,1952.29,735.154)">
            <g transform="matrix(1,0,0,1,-2002.09,-143.133)">
                <circle cx="1729.35" cy="2399.94" r="176.48" style="fill:rgb(0,126,196);"/>
            </g>
        </g>
        <g transform="matrix(1,0,0,1,1952.29,735.154)">
            <g transform="matrix(1,0,0,1,-1952.29,-128.929)">
                <path d="M1766.07,2316.34C1766.07,2313.8 1764.02,2311.75 1761.48,2311.75C1751.81,2311.75 1729.42,2311.75 1719.75,2311.75C1717.21,2311.75 1715.16,2313.8 1715.16,2316.34C1715.16,2343.83 1715.16,2485.55 1715.16,2485.55L1766.07,2485.55L1766.07,2316.34Z" style="fill:white;"/>
            </g>
        </g>
        <g transform="matrix(1,0,0,1,1952.29,735.154)">
            <g transform="matrix(1,0,0,0.444485,-2018.89,1251.83)">
                <path d="M1766.07,2322.07C1766.07,2319.33 1765.59,2316.71 1764.73,2314.77C1763.87,2312.83 1762.7,2311.75 1761.48,2311.75C1751.81,2311.75 1729.42,2311.75 1719.75,2311.75C1718.53,2311.75 1717.36,2312.83 1716.5,2314.77C1715.64,2316.71 1715.16,2319.33 1715.16,2322.07C1715.16,2359.46 1715.16,2485.55 1715.16,2485.55L1766.07,2485.55L1766.07,2322.07Z" style="fill:white;"/>
            </g>
        </g>
        <g transform="matrix(1,0,0,1,1952.29,735.154)">
            <g transform="matrix(1,0,0,0.357043,-2087.28,1469.17)">
                <path d="M1766.07,2324.6C1766.07,2321.19 1765.59,2317.92 1764.73,2315.51C1763.87,2313.1 1762.7,2311.75 1761.48,2311.75C1751.81,2311.75 1729.42,2311.75 1719.75,2311.75C1718.53,2311.75 1717.36,2313.1 1716.5,2315.51C1715.64,2317.92 1715.16,2321.19 1715.16,2324.6C1715.16,2364.81 1715.16,2485.55 1715.16,2485.55L1766.07,2485.55L1766.07,2324.6Z" style="fill:white;"/>
            </g>
        </g>
        <g transform="matrix(1,0,0,1,1952.29,735.154)">
            <g transform="matrix(1,0,0,1,-1952.29,-128.929)">
                <path d="M1668.09,2305.3C1667.6,2305.68 1667.17,2306.16 1666.86,2306.73L1647.46,2341.93L1610.85,2323.29C1609.86,2322.79 1608.78,2322.68 1607.77,2322.9C1606.01,2322.51 1604.1,2323.19 1603.01,2324.76C1596.12,2334.67 1577.59,2361.33 1570.71,2371.24C1569.26,2373.32 1569.78,2376.18 1571.86,2377.62C1574.94,2379.76 1579.27,2382.78 1582.35,2384.92C1584.43,2386.36 1587.29,2385.85 1588.74,2383.77L1612.91,2348.98L1651.32,2368.54C1651.96,2368.87 1652.64,2369.03 1653.31,2369.04C1655.37,2369.72 1657.68,2368.86 1658.77,2366.89C1664.59,2356.34 1680.27,2327.89 1686.09,2317.33C1686.73,2316.18 1686.81,2314.86 1686.43,2313.7L1694.94,2317.59C1696.16,2318.15 1697.59,2317.99 1698.65,2317.16C1699.71,2316.34 1700.22,2314.99 1699.98,2313.67C1698.34,2304.8 1695.51,2289.46 1694.05,2281.51C1693.82,2280.29 1693.04,2279.25 1691.94,2278.69C1690.83,2278.13 1689.53,2278.12 1688.42,2278.66C1680.7,2282.42 1665.3,2289.91 1656.64,2294.12C1655.49,2294.68 1654.77,2295.85 1654.78,2297.13C1654.8,2298.41 1655.55,2299.57 1656.71,2300.1L1668.09,2305.3Z" style="fill:white;"/>
            </g>
        </g>
    </g>
</svg>
