<?xml version="1.0" encoding="UTF-8" standalone="no"?>
<!DOCTYPE svg PUBLIC "-//W3C//DTD SVG 1.1//EN" "http://www.w3.org/Graphics/SVG/1.1/DTD/svg11.dtd">
<svg width="100%" height="100%" viewBox="0 0 353 353" version="1.1" xmlns="http://www.w3.org/2000/svg" xmlns:xlink="http://www.w3.org/1999/xlink" xml:space="preserve" xmlns:serif="http://www.serif.com/" style="fill-rule:evenodd;clip-rule:evenodd;stroke-linejoin:round;stroke-miterlimit:2;">
    <g transform="matrix(1,0,0,1,-2201.15,-2815.48)">
        <g transform="matrix(1,0,0,1,1952.29,735.154)">
            <g transform="matrix(1,0,0,1,-1304.01,-143.133)">
                <circle cx="1729.35" cy="2399.94" r="176.48" style="fill:rgb(0,124,194);"/>
            </g>
        </g>
        <g transform="matrix(1,0,0,1,1952.29,735.154)">
            <g transform="matrix(1,0,0,1,-1952.29,-128.929)">
                <path d="M2346.24,2352.29C2345.96,2350.6 2345.82,2348.86 2345.82,2347.09C2345.82,2329.53 2360.07,2315.28 2377.63,2315.28C2395.19,2315.28 2409.44,2329.53 2409.44,2347.09C2409.44,2348.86 2409.3,2350.6 2409.02,2352.29C2409.3,2354.39 2402.8,2398.5 2377.63,2398.35C2350.41,2398.2 2345.96,2354.39 2346.24,2352.29Z" style="fill:white;"/>
            </g>
        </g>
        <g transform="matrix(1,0,0,1,1952.29,735.154)">
            <g transform="matrix(0.892311,0,0,0.892311,-1789.5,137.293)">
                <path d="M2346.24,2352.29C2345.96,2350.6 2345.82,2348.86 2345.82,2347.09C2345.82,2329.53 2360.07,2315.28 2377.63,2315.28C2395.19,2315.28 2409.44,2329.53 2409.44,2347.09C2409.44,2348.86 2409.3,2350.6 2409.02,2352.29C2409.3,2354.39 2402.8,2398.5 2377.63,2398.35C2350.41,2398.2 2345.96,2354.39 2346.24,2352.29Z" style="fill:white;"/>
            </g>
        </g>
        <g transform="matrix(1,0,0,1,1952.29,735.154)">
            <g transform="matrix(0.892311,0,0,0.892311,-1599.09,137.293)">
                <path d="M2346.24,2352.29C2345.96,2350.6 2345.82,2348.86 2345.82,2347.09C2345.82,2329.53 2360.07,2315.28 2377.63,2315.28C2395.19,2315.28 2409.44,2329.53 2409.44,2347.09C2409.44,2348.86 2409.3,2350.6 2409.02,2352.29C2409.3,2354.39 2402.8,2398.5 2377.63,2398.35C2350.41,2398.2 2345.96,2354.39 2346.24,2352.29Z" style="fill:white;"/>
            </g>
        </g>
        <g transform="matrix(1,0,0,1,1952.29,735.154)">
            <g transform="matrix(1,0,0,1,-1952.29,-128.929)">
                <path d="M2307.68,2405.03L2321.63,2412.12L2309.8,2418.13C2304.56,2420.8 2301.35,2426.27 2301.59,2432.15C2302.01,2442.52 2302.63,2457.55 2302.63,2457.55L2351.36,2457.55L2351.3,2459.12L2217.45,2459.12C2217.45,2459.12 2216.9,2445.71 2216.52,2436.46C2216.31,2431.21 2219.17,2426.33 2223.85,2423.95L2260.47,2405.33L2283.94,2430.22L2307.68,2405.03Z" style="fill:white;"/>
            </g>
        </g>
        <g transform="matrix(1,0,0,1,1952.29,735.154)">
            <g transform="matrix(0.975318,0,0,1,-1891.73,-128.929)">
                <path d="M2302.63,2459.12C2302.63,2459.12 2302.01,2442.52 2301.59,2432.15C2301.35,2426.27 2304.56,2420.8 2309.8,2418.13C2322.97,2411.43 2347.26,2399.09 2353.45,2395.94C2354.36,2395.48 2355.43,2395.56 2356.26,2396.15C2359.88,2398.74 2370.2,2405.57 2377.63,2405.62L2377.8,2405.61C2385.22,2405.47 2395.41,2398.72 2399.01,2396.15C2399.83,2395.56 2400.91,2395.48 2401.81,2395.94C2408,2399.09 2432.29,2411.43 2445.46,2418.13C2450.7,2420.8 2453.91,2426.27 2453.67,2432.15C2453.25,2442.52 2452.63,2459.12 2452.63,2459.12L2302.63,2459.12Z" style="fill:white;"/>
            </g>
        </g>
        <g transform="matrix(1,0,0,1,1952.29,735.154)">
            <g transform="matrix(1,0,0,1,-1952.29,-128.929)">
                <path d="M2371.44,2430.22L2366.82,2417.2L2387.12,2417.2L2382.5,2430.22L2371.44,2430.22Z" style="fill:rgb(0,124,194);"/>
            </g>
        </g>
        <g transform="matrix(1,0,0,1,1952.29,735.154)">
            <g transform="matrix(1,0,0,-1,-1952.29,4735.47)">
                <path d="M2371.44,2430.22L2366.82,2406.85L2387.12,2406.85L2382.5,2430.22L2371.44,2430.22Z" style="fill:rgb(0,124,194);"/>
            </g>
        </g>
        <g transform="matrix(1,0,0,1,1952.29,735.154)">
            <g transform="matrix(1,0,0,1,-1952.29,-128.929)">
                <path d="M2450.6,2405.03L2436.65,2412.12L2448.48,2418.13C2453.72,2420.8 2456.93,2426.27 2456.69,2432.15C2456.27,2442.52 2455.66,2457.55 2455.66,2457.55L2406.92,2457.55L2406.98,2459.12L2540.84,2459.12C2540.84,2459.12 2541.38,2445.71 2541.76,2436.46C2541.97,2431.21 2539.11,2426.33 2534.43,2423.95L2497.81,2405.33L2474.35,2430.22L2450.6,2405.03ZM2519.84,2445.86L2492.39,2445.86L2492.39,2451.53L2519.84,2451.53L2519.84,2445.86Z" style="fill:white;"/>
            </g>
        </g>
    </g>
</svg>
