<?xml version="1.0" encoding="UTF-8" standalone="no"?>
<!DOCTYPE svg PUBLIC "-//W3C//DTD SVG 1.1//EN" "http://www.w3.org/Graphics/SVG/1.1/DTD/svg11.dtd">
<svg width="100%" height="100%" viewBox="0 0 353 353" version="1.1" xmlns="http://www.w3.org/2000/svg" xmlns:xlink="http://www.w3.org/1999/xlink" xml:space="preserve" xmlns:serif="http://www.serif.com/" style="fill-rule:evenodd;clip-rule:evenodd;stroke-linejoin:round;stroke-miterlimit:2;">
    <g transform="matrix(1,0,0,1,-2880.09,-2815.48)">
        <g transform="matrix(1,0,0,1,1952.29,735.154)">
            <g transform="matrix(1,0,0,1,-625.069,-143.133)">
                <circle cx="1729.35" cy="2399.94" r="176.48" style="fill:rgb(0,124,194);"/>
            </g>
        </g>
        <g transform="matrix(1,0,0,1,1952.29,735.154)">
            <g transform="matrix(1,0,0,1,21.5946,601.88)">
                <g transform="matrix(1,0,0,1,-1952.29,-735.154)">
                    <path d="M3122.43,2350.84C3107.73,2315.05 3072.51,2289.83 3031.46,2289.83C2989.44,2289.83 2953.54,2316.25 2939.49,2353.37C2938.85,2355.1 2937.19,2356.26 2935.33,2356.26C2929.51,2356.26 2916.88,2356.26 2909.44,2356.26C2908.04,2356.26 2906.72,2355.61 2905.88,2354.49C2905.04,2353.38 2904.78,2351.93 2905.16,2350.59C2921.35,2296.16 2971.8,2256.41 3031.46,2256.41C3091.21,2256.41 3141.72,2296.28 3157.82,2350.84L3173.56,2350.84C3175.6,2350.84 3177.45,2352.04 3178.28,2353.9C3179.12,2355.76 3178.78,2357.93 3177.42,2359.45C3168.16,2369.84 3152.95,2386.91 3145.86,2394.86C3144.88,2395.96 3143.47,2396.59 3142,2396.59C3140.52,2396.59 3139.12,2395.96 3138.14,2394.86C3131.05,2386.91 3115.84,2369.84 3106.57,2359.45C3105.22,2357.93 3104.88,2355.76 3105.72,2353.9C3106.55,2352.04 3108.4,2350.84 3110.43,2350.84L3122.43,2350.84Z" style="fill:white;"/>
                </g>
                <g transform="matrix(-1,0,0,-1,4117.67,4045.01)">
                    <path d="M3122.43,2350.84C3107.73,2315.05 3072.51,2289.83 3031.46,2289.83C2989.44,2289.83 2953.54,2316.25 2939.49,2353.37C2938.85,2355.1 2937.19,2356.26 2935.33,2356.26C2929.51,2356.26 2916.88,2356.26 2909.44,2356.26C2908.04,2356.26 2906.72,2355.61 2905.88,2354.49C2905.04,2353.38 2904.78,2351.93 2905.16,2350.59C2921.35,2296.16 2971.8,2256.41 3031.46,2256.41C3091.21,2256.41 3141.72,2296.28 3157.82,2350.84L3173.56,2350.84C3175.6,2350.84 3177.45,2352.04 3178.28,2353.9C3179.12,2355.76 3178.78,2357.93 3177.42,2359.45C3168.16,2369.84 3152.95,2386.91 3145.86,2394.86C3144.88,2395.96 3143.47,2396.59 3142,2396.59C3140.52,2396.59 3139.12,2395.96 3138.14,2394.86C3131.05,2386.91 3115.84,2369.84 3106.57,2359.45C3105.22,2357.93 3104.88,2355.76 3105.72,2353.9C3106.55,2352.04 3108.4,2350.84 3110.43,2350.84L3122.43,2350.84Z" style="fill:white;"/>
                </g>
            </g>
        </g>
        <g transform="matrix(1,0,0,1,1952.29,735.154)">
            <g transform="matrix(1,0,0,1,-1927.17,-133.274)">
                <path d="M3028.79,2351.92L3028.79,2314.37C3028.79,2310.65 3031.8,2307.64 3035.52,2307.64C3035.52,2307.64 3035.52,2307.64 3035.52,2307.64C3039.24,2307.64 3042.25,2310.65 3042.25,2314.37L3042.25,2353.45C3055.56,2357.6 3065.59,2369.19 3067.46,2383.35L3093.64,2383.35C3097.36,2383.35 3100.37,2386.37 3100.37,2390.08C3100.37,2390.08 3100.37,2390.08 3100.37,2390.08C3100.37,2393.8 3097.36,2396.81 3093.64,2396.81L3066.72,2396.81C3062.83,2412.66 3048.51,2424.44 3031.46,2424.44C3011.42,2424.44 2995.15,2408.17 2995.15,2388.13C2995.15,2368.99 3010,2353.28 3028.79,2351.92Z" style="fill:white;"/>
            </g>
        </g>
    </g>
</svg>
