<?xml version="1.0" encoding="UTF-8" standalone="no"?>
<!DOCTYPE svg PUBLIC "-//W3C//DTD SVG 1.1//EN" "http://www.w3.org/Graphics/SVG/1.1/DTD/svg11.dtd">
<svg width="100%" height="100%" viewBox="0 0 353 353" version="1.1" xmlns="http://www.w3.org/2000/svg" xmlns:xlink="http://www.w3.org/1999/xlink" xml:space="preserve" xmlns:serif="http://www.serif.com/" style="fill-rule:evenodd;clip-rule:evenodd;stroke-linejoin:round;stroke-miterlimit:2;">
    <g transform="matrix(1,0,0,1,-3524.31,-2815.48)">
        <g transform="matrix(1,0,0,1,1952.29,735.154)">
            <g transform="matrix(1,0,0,1,19.149,-143.133)">
                <circle cx="1729.35" cy="2399.94" r="176.48" style="fill:rgb(0,124,194);"/>
            </g>
        </g>
        <g transform="matrix(1,0,0,1,1952.29,735.154)">
            <g transform="matrix(1,0,0,1,-1933.25,-774.886)">
                <path d="M3568.28,3018.34L3560.43,3018.34C3556.14,3018.34 3552.66,3021.82 3552.66,3026.12C3552.66,3029.66 3552.66,3033.86 3552.66,3037.4C3552.66,3041.7 3556.14,3045.18 3560.43,3045.18L3568.28,3045.18L3568.28,3108.12C3568.28,3113.37 3570.37,3118.41 3574.08,3122.12C3577.79,3125.83 3582.83,3127.92 3588.08,3127.92C3588.36,3127.92 3588.64,3127.92 3588.92,3127.92C3594.18,3127.92 3599.21,3125.83 3602.93,3122.12C3606.64,3118.41 3608.73,3113.37 3608.73,3108.12L3608.73,3045.18L3615.13,3045.18C3619.42,3045.18 3622.9,3041.7 3622.9,3037.4C3622.9,3033.86 3622.9,3029.66 3622.9,3026.12C3622.9,3021.82 3619.42,3018.34 3615.13,3018.34L3608.73,3018.34L3608.73,2955.27C3608.73,2950.02 3606.64,2944.98 3602.93,2941.27C3599.21,2937.55 3594.18,2935.47 3588.92,2935.47C3588.64,2935.47 3588.36,2935.47 3588.08,2935.47C3582.83,2935.47 3577.79,2937.55 3574.08,2941.27C3570.37,2944.98 3568.28,2950.02 3568.28,2955.27L3568.28,3018.34ZM3661.06,2963.66L3653.94,2963.66C3649.64,2963.66 3646.16,2967.15 3646.16,2971.44C3646.16,2974.99 3646.16,2979.18 3646.16,2982.73C3646.16,2987.02 3649.64,2990.51 3653.94,2990.51L3661.06,2990.51L3661.06,3108.12C3661.06,3113.37 3663.15,3118.41 3666.86,3122.12C3670.58,3125.83 3675.61,3127.92 3680.86,3127.92C3681.14,3127.92 3681.43,3127.92 3681.71,3127.92C3686.96,3127.92 3692,3125.83 3695.71,3122.12C3699.42,3118.41 3701.51,3113.37 3701.51,3108.12L3701.51,2990.51L3708.63,2990.51C3712.93,2990.51 3716.41,2987.02 3716.41,2982.73C3716.41,2979.18 3716.41,2974.99 3716.41,2971.44C3716.41,2967.15 3712.93,2963.66 3708.63,2963.66L3701.51,2963.66L3701.51,2955.27C3701.51,2950.02 3699.42,2944.98 3695.71,2941.27C3692,2937.55 3686.96,2935.47 3681.71,2935.47C3681.43,2935.47 3681.14,2935.47 3680.86,2935.47C3675.61,2935.47 3670.58,2937.55 3666.86,2941.27C3663.15,2944.98 3661.06,2950.02 3661.06,2955.27L3661.06,2963.66ZM3755.5,3071.52L3748.38,3071.52C3744.08,3071.52 3740.6,3075.01 3740.6,3079.3C3740.6,3082.85 3740.6,3087.04 3740.6,3090.59C3740.6,3094.88 3744.08,3098.36 3748.38,3098.36L3755.5,3098.36L3755.5,3108.12C3755.5,3113.37 3757.59,3118.41 3761.3,3122.12C3765.01,3125.83 3770.05,3127.92 3775.3,3127.92C3775.58,3127.92 3775.87,3127.92 3776.14,3127.92C3781.4,3127.92 3786.43,3125.83 3790.15,3122.12C3793.86,3118.41 3795.95,3113.37 3795.95,3108.12L3795.95,3098.36L3803.07,3098.36C3807.37,3098.36 3810.85,3094.88 3810.85,3090.59C3810.85,3087.04 3810.85,3082.85 3810.85,3079.3C3810.85,3075.01 3807.37,3071.52 3803.07,3071.52L3795.95,3071.52L3795.95,2955.27C3795.95,2950.02 3793.86,2944.98 3790.15,2941.27C3786.43,2937.55 3781.4,2935.47 3776.14,2935.47C3775.87,2935.47 3775.58,2935.47 3775.3,2935.47C3770.05,2935.47 3765.01,2937.55 3761.3,2941.27C3757.59,2944.98 3755.5,2950.02 3755.5,2955.27L3755.5,3071.52Z" style="fill:white;"/>
            </g>
        </g>
    </g>
</svg>
