<?xml version="1.0" encoding="UTF-8" standalone="no"?>
<!DOCTYPE svg PUBLIC "-//W3C//DTD SVG 1.1//EN" "http://www.w3.org/Graphics/SVG/1.1/DTD/svg11.dtd">
<svg width="100%" height="100%" viewBox="0 0 48 48" version="1.1" xmlns="http://www.w3.org/2000/svg" xmlns:xlink="http://www.w3.org/1999/xlink" xml:space="preserve" xmlns:serif="http://www.serif.com/" style="fill-rule:evenodd;clip-rule:evenodd;stroke-linejoin:round;stroke-miterlimit:2;">
    <g transform="matrix(1,0,0,1,-340.851,-491.64)">
        <path d="M378.41,513.082C378.414,513.105 378.414,513.125 378.418,513.145C379.175,517.621 377.699,522.188 374.504,525.371C374.496,525.379 374.492,525.383 374.484,525.387C374.27,525.605 374.043,525.816 373.809,526.02L373.804,526.023C372.875,526.832 371.827,527.539 370.66,528.094C369.496,528.652 368.285,529.016 367.074,529.23L367.066,529.23C366.727,529.289 366.387,529.34 366.047,529.371C366.027,529.375 366.008,529.375 365.992,529.379C362.395,529.723 358.813,528.656 356,526.441C355.988,526.43 355.973,526.422 355.956,526.406C355.652,526.164 355.352,525.906 355.063,525.633C355.016,525.59 354.969,525.547 354.925,525.5C354.664,525.246 354.41,524.984 354.164,524.707C354.148,524.684 354.129,524.668 354.104,524.645C354.113,524.645 354.113,524.641 354.113,524.641C353.3,523.711 352.59,522.66 352.031,521.496C351.473,520.316 351.104,519.102 350.887,517.875C350.891,517.875 350.887,517.875 350.883,517.875C350.883,517.859 350.883,517.844 350.879,517.824C350.066,513.039 351.809,508.137 355.477,504.949L355.479,504.949C356.414,504.137 357.461,503.422 358.637,502.863C364.066,500.277 370.316,501.512 374.391,505.48C374.465,505.551 374.539,505.625 374.609,505.695C374.793,505.879 374.961,506.063 375.129,506.254C375.156,506.285 375.188,506.313 375.215,506.34C375.215,506.344 375.206,506.344 375.206,506.344C376.008,507.273 376.711,508.309 377.262,509.465C377.824,510.645 378.188,511.863 378.406,513.086L378.406,513.082L378.41,513.082ZM384.219,502.078C383.496,502.414 382.285,502.992 380.706,503.738C378.977,501.363 376.773,499.465 374.293,498.098C375.07,495.962 375.543,494.633 375.563,494.555C375.66,494.09 375.367,493.781 374.691,493.57C374.609,493.543 373.723,493.223 372.281,492.703C370.844,492.172 369.965,491.848 369.879,491.813C369.223,491.536 368.797,491.587 368.574,492.004C368.535,492.082 368.016,493.488 367.179,495.758C364.699,495.438 362.133,495.578 359.625,496.235C358.563,494.016 357.898,492.641 357.852,492.57C357.586,492.172 357.16,492.164 356.535,492.5C356.456,492.543 355.609,492.949 354.227,493.61C352.84,494.266 351.992,494.668 351.906,494.703C351.254,494.977 350.996,495.313 351.133,495.77C351.16,495.848 351.809,497.235 352.867,499.457C350.637,501.094 348.836,503.148 347.496,505.445C345.176,504.656 343.73,504.168 343.652,504.148C343.188,504.063 342.879,504.359 342.676,505.043C342.656,505.129 342.348,506.016 341.855,507.465C341.352,508.914 341.047,509.801 341.012,509.887C340.746,510.547 340.805,510.969 341.23,511.184C341.301,511.223 342.715,511.715 345,512.504C344.598,515.121 344.707,517.832 345.398,520.492C343.184,521.547 341.805,522.215 341.738,522.254C341.336,522.52 341.328,522.945 341.664,523.57C341.707,523.648 342.109,524.5 342.773,525.883C343.426,527.266 343.828,528.117 343.863,528.203C344.137,528.859 344.469,529.121 344.926,528.977C345.008,528.949 346.391,528.301 348.613,527.25C350.081,529.25 351.887,530.918 353.906,532.211C353.254,534.004 352.746,535.395 352.456,536.191C352.277,536.688 352.554,537.094 353.227,537.336C353.304,537.367 353.414,537.402 353.496,537.438C355.371,538.117 356.867,538.664 357.852,539.027C357.938,539.055 358.039,539.094 358.121,539.121C358.793,539.371 359.266,539.234 359.445,538.738C359.727,537.98 360.202,536.676 360.816,534.992C363.702,535.563 366.738,535.492 369.691,534.715C370.445,536.289 371.027,537.508 371.375,538.227C371.598,538.699 372.077,538.789 372.727,538.48C372.804,538.445 372.906,538.395 372.984,538.359C373.934,537.906 375.367,537.223 377.172,536.363C377.25,536.32 377.354,536.277 377.429,536.242C378.077,535.93 378.309,535.5 378.09,535.023C377.746,534.305 377.164,533.09 376.414,531.512C378.75,529.805 380.613,527.637 381.977,525.211C383.648,525.781 384.945,526.227 385.702,526.488C386.202,526.656 386.602,526.379 386.836,525.695C386.863,525.621 386.895,525.512 386.925,525.43C387.27,524.438 387.785,522.93 388.434,521.047C388.465,520.957 388.5,520.852 388.531,520.773C388.766,520.098 388.617,519.629 388.121,519.457C387.354,519.191 386.043,518.738 384.348,518.148C384.695,515.629 384.566,513.023 383.895,510.469C385.473,509.719 386.691,509.137 387.41,508.793C387.883,508.57 387.977,508.086 387.668,507.438C387.629,507.367 387.577,507.262 387.543,507.184C387.094,506.23 386.406,504.797 385.554,502.996C385.516,502.91 385.465,502.813 385.434,502.734C385.121,502.09 384.695,501.852 384.219,502.078Z" style="fill:white;"/>
        <path d="M364.742,522.074C361.086,522.074 358.113,519.105 358.113,515.441C358.113,511.777 361.086,508.809 364.742,508.809C368.406,508.809 371.375,511.777 371.375,515.441C371.375,519.105 368.406,522.074 364.742,522.074ZM364.742,506.441C359.773,506.441 355.746,510.469 355.746,515.441C355.746,520.414 359.773,524.441 364.742,524.441C369.715,524.441 373.746,520.414 373.746,515.441C373.746,510.469 369.715,506.441 364.742,506.441Z" style="fill:white;"/>
    </g>
</svg>
