<?xml version="1.0" encoding="UTF-8" standalone="no"?>
<!DOCTYPE svg PUBLIC "-//W3C//DTD SVG 1.1//EN" "http://www.w3.org/Graphics/SVG/1.1/DTD/svg11.dtd">
<svg width="100%" height="100%" viewBox="0 0 54 54" version="1.1" xmlns="http://www.w3.org/2000/svg" xmlns:xlink="http://www.w3.org/1999/xlink" xml:space="preserve" xmlns:serif="http://www.serif.com/" style="fill-rule:evenodd;clip-rule:evenodd;stroke-linejoin:round;stroke-miterlimit:2;">
    <g transform="matrix(1,0,0,1,-420.766,-9.45697)">
        <path d="M430.625,36.355C430.625,32.039 432.229,28.098 434.879,25.098L427.854,18.164C423.456,22.953 420.766,29.344 420.766,36.355C420.766,43.504 423.559,49.992 428.104,54.809L435.031,47.793C432.293,44.766 430.625,40.758 430.625,36.355Z" style="fill:white;"/>
        <path d="M467.238,17.906L460.316,24.922C463.047,27.949 464.715,31.961 464.715,36.355C464.715,40.676 463.109,44.617 460.461,47.621L467.484,54.555C471.883,49.762 474.574,43.379 474.574,36.355C474.574,29.211 471.781,22.723 467.238,17.906Z" style="fill:white;"/>
        <path d="M459.098,49.004C456.074,51.738 452.066,53.402 447.668,53.402C443.354,53.402 439.418,51.797 436.414,49.156L429.479,56.184C434.273,60.574 440.656,63.266 447.668,63.266C454.809,63.266 461.301,60.473 466.117,55.934L459.098,49.004Z" style="fill:white;"/>
        <path d="M436.242,23.707C439.266,20.98 443.277,19.313 447.668,19.313C451.984,19.313 455.922,20.914 458.925,23.563L465.855,16.539C461.066,12.141 454.684,9.457 447.668,9.457C440.531,9.457 434.043,12.246 429.227,16.781L436.242,23.707Z" style="fill:white;"/>
        <path d="M451.637,33.16C451.637,30.59 449.979,29.488 447.867,29.488C445.961,29.488 444.16,30.465 443.984,32.637C444.199,32.543 444.477,32.457 445.113,32.457C446.102,32.457 446.563,32.734 446.563,33.59C446.563,33.863 446.52,34.172 446.418,34.566L443.984,44.531C443.973,44.566 443.973,44.605 443.961,44.645C443.961,44.645 443.702,46.063 443.702,46.516C443.702,49.09 445.359,50.188 447.477,50.188C449.375,50.188 451.175,49.215 451.354,47.039C451.141,47.129 450.859,47.219 450.223,47.219C449.234,47.219 448.781,46.945 448.781,46.09C448.781,45.813 448.956,44.98 448.956,44.98L451.461,34.695C451.461,34.695 451.637,33.617 451.637,33.16Z" style="fill:white;"/>
        <path d="M451.031,25.309C451.031,23.773 449.785,22.527 448.246,22.527C446.706,22.523 445.461,23.773 445.461,25.313C445.461,26.859 446.706,28.102 448.246,28.102C449.785,28.102 451.031,26.859 451.031,25.309Z" style="fill:white;"/>
    </g>
</svg>
