<?xml version="1.0" encoding="UTF-8" standalone="no"?>
<!DOCTYPE svg PUBLIC "-//W3C//DTD SVG 1.1//EN" "http://www.w3.org/Graphics/SVG/1.1/DTD/svg11.dtd">
<svg width="100%" height="100%" viewBox="0 0 32 41" version="1.1" xmlns="http://www.w3.org/2000/svg" xmlns:xlink="http://www.w3.org/1999/xlink" xml:space="preserve" xmlns:serif="http://www.serif.com/" style="fill-rule:evenodd;clip-rule:evenodd;stroke-linejoin:round;stroke-miterlimit:2;">
    <g transform="matrix(1,0,0,1,-17.466,-135.188)">
        <g>
            <g>
                <g transform="matrix(0.754391,0,0,0.754391,6.4322,44.4918)">
                    <path d="M19.73,147.48C19.727,146.32 19.73,141.086 19.73,141.086C19.73,141.087 25.809,141.125 27.378,141.086C28.948,141.055 28.973,140.883 28.987,139.703C29.007,138.844 29.003,138.039 28.987,137.289C28.973,136.172 28.93,135.918 27.641,135.918C23.453,135.918 19.844,135.879 18.859,135.887C15.03,135.918 14.66,137.344 14.632,140.031C14.625,140.602 14.625,143.434 14.628,147.289C14.719,148.469 14.694,149.086 15.898,149.102C17.105,149.113 17.516,149.098 18.414,149.098C19.359,148.988 19.75,148.816 19.73,147.48Z" style="fill:white;"/>
                </g>
                <g transform="matrix(0.754391,0,0,0.754391,6.4322,41.1786)">
                    <path d="M26.234,173.156C25.069,173.148 19.839,173.07 19.839,173.07C19.839,173.07 19.96,166.988 19.948,165.418C19.934,163.852 19.762,163.828 18.582,163.789C17.727,163.762 16.921,163.754 16.171,163.758C15.059,163.762 14.796,163.801 14.777,165.086C14.719,169.273 14.637,172.879 14.628,173.867C14.598,177.695 16.023,178.086 18.707,178.152C19.28,178.168 22.109,178.207 25.969,178.258C27.152,178.188 27.766,178.219 27.796,177.008C27.832,175.809 27.816,175.395 27.832,174.5C27.73,173.551 27.566,173.16 26.234,173.156Z" style="fill:white;"/>
                </g>
                <g transform="matrix(0.754391,0,0,0.754391,6.4322,44.4918)">
                    <path d="M51.762,147.48C51.769,146.32 51.762,141.086 51.762,141.086C51.762,141.087 45.68,141.125 44.109,141.086C42.543,141.055 42.523,140.883 42.5,139.703C42.484,138.844 42.488,138.039 42.504,137.289C42.523,136.172 42.566,135.918 43.855,135.918C48.039,135.918 51.648,135.879 52.632,135.887C56.461,135.918 56.831,137.344 56.859,140.031C56.867,140.602 56.867,143.434 56.863,147.289C56.773,148.469 56.801,149.086 55.593,149.102C54.387,149.113 53.977,149.098 53.081,149.098C52.137,148.988 51.742,148.816 51.762,147.48Z" style="fill:white;"/>
                </g>
                <g transform="matrix(0.754391,0,0,0.754391,6.4322,41.1786)">
                    <path d="M45.262,173.156C46.422,173.148 51.656,173.07 51.656,173.07C51.656,173.07 51.531,166.988 51.547,165.418C51.559,163.852 51.73,163.828 52.91,163.789C53.766,163.762 54.574,163.754 55.319,163.758C56.438,163.762 56.694,163.801 56.715,165.086C56.773,169.273 56.859,172.879 56.863,173.867C56.894,177.695 55.468,178.086 52.785,178.152C52.211,178.168 49.382,178.207 45.527,178.258C44.343,178.188 43.727,178.219 43.694,177.008C43.664,175.809 43.676,175.395 43.66,174.5C43.762,173.551 43.93,173.16 45.262,173.156Z" style="fill:white;"/>
                </g>
            </g>
            <g transform="matrix(0.926238,0,0,0.926238,1.90714,11.8792)">
                <path d="M20.368,139.54C19.928,139.794 19.631,140.239 19.564,140.743C19.498,141.247 19.67,141.753 20.029,142.112C20.042,142.126 20.054,142.138 20.067,142.151C20.562,142.646 21.316,142.771 21.944,142.463C25.461,140.738 30.233,138.401 30.626,138.213C32.903,137.121 34.409,136.687 37.646,138.247C38.318,138.571 42.424,140.603 45.829,142.279C46.458,142.588 47.213,142.463 47.708,141.968C47.731,141.945 47.755,141.922 47.778,141.898C48.144,141.533 48.315,141.016 48.24,140.504C48.166,139.993 47.853,139.547 47.398,139.301C44.318,137.671 38.597,134.643 37.944,134.305C34.456,132.5 32.834,133.002 30.381,134.266C29.993,134.465 23.635,137.816 20.368,139.54Z" style="fill:white;"/>
            </g>
        </g>
    </g>
</svg>
