<svg width="133" height="122" viewBox="0 0 133 122" fill="none" xmlns="http://www.w3.org/2000/svg">
<path fill-rule="evenodd" clip-rule="evenodd" d="M2.34742 80.8162L1.31006 81.5843L3.08224 80.9211L129.643 32.3042L131.476 23.9081L131.619 23.5866L132.961 17.7271C132.377 17.7271 128.901 18.6805 128.157 18.9077C126.644 19.3702 124.94 19.6979 123.341 20.1804C120.206 21.1268 116.973 21.8415 113.79 22.7037C112.172 23.1421 110.592 23.4497 109.044 23.9424C107.479 24.4409 106.341 25.1903 104.964 25.9513C102.373 27.3825 99.6432 28.8746 97.0176 30.1836C94.3915 31.4929 91.732 32.9595 89.1425 34.3823C86.5319 35.8166 83.8351 37.1463 81.302 38.6153C80.0368 39.3491 78.6734 39.9318 77.3848 40.6819C76.1277 41.414 74.7124 42.181 73.4292 42.816C70.7867 44.1233 68.15 45.6439 65.4838 47.049C62.8406 48.4419 60.2895 49.8905 57.6456 51.2844C55.0222 52.6671 52.3087 53.9972 49.7617 55.4739C44.6278 58.4502 39.204 61.0662 33.9869 63.9515C31.4079 65.378 28.7376 66.8405 26.1118 68.1498C24.7579 68.8249 23.5039 69.577 22.1579 70.285C20.8753 70.9597 19.3575 71.6497 18.1802 72.3967C16.9666 73.1672 15.5466 73.7305 14.2732 74.4742C13.024 75.2036 11.5886 75.9839 10.3285 76.6185C9.04463 77.265 7.57432 78.0019 6.33899 78.7184C5.6293 79.1299 3.01433 80.6379 2.34742 80.8162Z" fill="#0566AC"/>
<path fill-rule="evenodd" clip-rule="evenodd" d="M3.2924 81.026L0.562317 82.0756H1.19255L1.71751 81.8658L85.3061 65.82L85.6195 65.6513L123.701 58.3473L127.645 41.0397L127.58 40.9474L3.2924 81.026Z" fill="#2B4466"/>
<path fill-rule="evenodd" clip-rule="evenodd" d="M1.71753 81.8658L1.19257 82.0756H118.262L121.721 66.9138L1.71753 81.8658Z" fill="#294043"/>
<path fill-rule="evenodd" clip-rule="evenodd" d="M118.262 82.0757H0.562339L3.29243 81.0261L3.08224 80.9211L1.31006 81.5843L2.34742 80.8162C2.24657 80.5887 6.23508 78.132 6.83984 77.7493C8.47348 76.7156 10.0365 75.7598 11.6494 74.6851C14.8199 72.572 18.0444 70.7186 21.2047 68.5974C24.2795 66.5332 27.577 64.4106 30.738 62.4876C32.357 61.5025 33.9883 60.4696 35.5462 59.4217C37.1163 58.366 38.845 57.4274 40.3544 56.3561C41.6281 55.4525 43.7229 54.0919 45.0998 53.3323C46.7012 52.4488 48.2964 51.21 49.9073 50.2661C51.4211 49.3791 53.1634 48.2117 54.6347 47.2246C56.2181 46.1618 57.8446 45.233 59.444 44.1593C61.0155 43.1047 62.6379 42.178 64.1897 41.1366C65.6658 40.146 67.4315 38.9477 68.985 38.0574C69.8472 37.5637 78.4748 32.0342 78.5763 31.9072L70.2967 34.0658L67.9538 34.6733L53.8873 38.2866L53.5851 38.5117C52.2741 38.5117 50.1168 39.4347 48.781 39.6924C47.2041 39.9963 46.3029 41.2968 45.2125 42.213C44.11 43.139 43.1086 44.1753 42.0084 45.0982C40.9928 45.9505 39.6552 47.0137 38.7544 47.9333C36.8158 49.9122 34.3007 51.6284 32.3505 53.6029C31.5312 54.4325 30.031 55.7164 29.1016 56.4427C28.0123 57.294 26.98 58.4611 25.8859 59.3161C24.9508 60.0472 23.528 61.2703 22.6886 62.1029C21.9188 62.8669 20.2855 64.3671 19.4617 64.9651C18.6787 65.5335 16.967 67.0955 16.2345 67.8272C15.3079 68.7529 14.007 69.7981 12.9788 70.6606C11.6773 71.7529 0.248922 81.7826 0.142639 82.1809L118.262 82.0757Z" fill="#A5D7DA"/>
<path fill-rule="evenodd" clip-rule="evenodd" d="M35.6307 88.4791H37.5207C37.9197 88.4791 38.2559 87.8343 38.2559 87.4295C38.2559 86.8014 37.95 86.2747 37.3109 86.2747H35.6307V88.4791Z" fill="white"/>
<path d="M0 84.5432H2.32838L5.36408 89.2496V84.5432H7.71284V93.0507H5.36408L2.34333 88.38V93.0507H0V84.5432Z" fill="#294043"/>
<path d="M9.3631 84.5432H16.0392V86.3596H11.8599V87.7124H15.737V89.4476H11.8599V91.1233H16.1612V93.0507H9.3631V84.5432Z" fill="#294043"/>
<path d="M16.6719 84.5432H19.0376L19.8899 89.2951L21.1327 84.5432H23.493L24.7413 89.2951L25.5936 84.5432H27.9481L26.1718 93.0507H23.7294L22.3158 87.6944L20.9076 93.0507H18.4651L16.6719 84.5432Z" fill="#294043"/>
<path d="M32.557 93.0507V84.5432H36.7102C37.48 84.5432 38.0695 84.6125 38.4749 84.7531C38.8824 84.8916 39.2107 85.1494 39.4607 85.5276C39.7102 85.9039 39.8342 86.3633 39.8342 86.9042C39.8342 87.3776 39.7384 87.7837 39.549 88.1263C39.3574 88.4689 39.0946 88.7464 38.7622 88.9603C38.5483 89.0947 38.2573 89.2078 37.8875 89.2951C38.1839 89.4 38.3999 89.5049 38.5371 89.6099C38.627 89.6791 38.7605 89.8279 38.935 90.0557C39.1096 90.2853 39.226 90.4598 39.2841 90.5844L40.4895 93.0507H37.6732L36.3421 90.4496C36.1734 90.1148 36.0229 89.8951 35.8898 89.7942C35.7115 89.6632 35.5068 89.598 35.2796 89.598H35.0599V93.0507H32.557ZM35.0599 87.9898H36.1112C36.224 87.9898 36.4436 87.9521 36.7703 87.8747C36.9353 87.839 37.0708 87.7497 37.1757 87.6075C37.279 87.4648 37.3316 87.3002 37.3316 87.1141C37.3316 86.8387 37.2491 86.6288 37.0837 86.4821C36.9187 86.3338 36.6087 86.2604 36.1543 86.2604H35.0599V87.9898Z" fill="#294043"/>
<path d="M46.2478 91.6462H43.4091L43.0186 93.0507H40.4725L43.5028 84.5432H46.2196L49.2516 93.0507H46.6438L46.2478 91.6462ZM45.7259 89.8061L44.8339 86.7477L43.948 89.8061H45.7259Z" fill="#294043"/>
<path d="M48.2774 84.5432H51.0445L52.6724 87.4153L54.3002 84.5432H57.0507L53.9155 89.4869V93.0507H51.4184V89.4869L48.2774 84.5432Z" fill="#294043"/>
<path d="M61.1757 90.236L63.5469 90.0795C63.5975 90.4856 63.7027 90.7943 63.8603 91.0082C64.1157 91.3528 64.4837 91.5233 64.9605 91.5233C65.3153 91.5233 65.5897 91.436 65.7829 91.2598C65.9744 91.0836 66.0702 90.8795 66.0702 90.6479C66.0702 90.4279 65.9802 90.2299 65.7962 90.0557C65.6121 89.8812 65.1877 89.7168 64.5194 89.5623C63.4267 89.3029 62.6474 88.9603 62.1818 88.5304C61.7126 88.1005 61.4779 87.5538 61.4779 86.8883C61.4779 86.4506 61.5981 86.0366 61.8385 85.6485C62.0786 85.2601 62.4392 84.9551 62.9218 84.7314C63.4043 84.5093 64.0651 84.3986 64.9045 84.3986C65.935 84.3986 66.7218 84.6006 67.2624 85.0044C67.803 85.4088 68.1242 86.0526 68.2274 86.9338L65.8787 87.0784C65.8169 86.6961 65.6855 86.417 65.4844 86.2424C65.2855 86.0703 65.0094 85.983 64.6583 85.983C64.3673 85.983 64.1496 86.0465 64.0029 86.1772C63.8566 86.3059 63.7836 86.4645 63.7836 86.6506C63.7836 86.7854 63.8433 86.9063 63.9639 87.0149C64.082 87.128 64.3598 87.2309 64.8009 87.328C65.8899 87.5755 66.6692 87.8272 67.1405 88.0808C67.6115 88.3341 67.9551 88.6472 68.169 89.0238C68.3833 89.398 68.492 89.818 68.492 90.2836C68.492 90.8282 68.3476 91.3311 68.0621 91.7909C67.7768 92.2523 67.3768 92.6011 66.8624 92.8384C66.35 93.0765 65.7021 93.195 64.9211 93.195C63.5506 93.195 62.6005 92.9179 62.0732 92.3593C61.5435 91.8024 61.245 91.0955 61.1757 90.236Z" fill="#294043"/>
<path d="M68.9313 84.5432H71.6988L73.3266 87.4153L74.9542 84.5432H77.705L74.5694 89.4869V93.0507H72.0723V89.4869L68.9313 84.5432Z" fill="#294043"/>
<path d="M77.5885 90.236L79.9597 90.0795C80.0103 90.4856 80.1155 90.7943 80.2731 91.0082C80.5284 91.3528 80.8965 91.5233 81.3733 91.5233C81.7281 91.5233 82.0025 91.436 82.1957 91.2598C82.3872 91.0836 82.483 90.8795 82.483 90.6479C82.483 90.4279 82.3926 90.2299 82.2089 90.0557C82.0249 89.8812 81.6004 89.7168 80.9322 89.5623C79.8395 89.3029 79.0602 88.9603 78.5946 88.5304C78.1254 88.1005 77.8907 87.5538 77.8907 86.8883C77.8907 86.4506 78.0109 86.0366 78.2513 85.6485C78.4914 85.2601 78.852 84.9551 79.3345 84.7314C79.8171 84.5093 80.4778 84.3986 81.3169 84.3986C82.3478 84.3986 83.1346 84.6006 83.6752 85.0044C84.2158 85.4088 84.537 86.0526 84.6402 86.9338L82.2915 87.0784C82.2293 86.6961 82.0982 86.417 81.8972 86.2424C81.6982 86.0703 81.4222 85.983 81.0711 85.983C80.7801 85.983 80.5624 86.0465 80.4157 86.1772C80.2694 86.3059 80.1963 86.4645 80.1963 86.6506C80.1963 86.7854 80.2561 86.9063 80.3767 87.0149C80.4948 87.128 80.7726 87.2309 81.2137 87.328C82.3027 87.5755 83.082 87.8272 83.5533 88.0808C84.0242 88.3341 84.3679 88.6472 84.5818 89.0238C84.7961 89.398 84.9047 89.818 84.9047 90.2836C84.9047 90.8282 84.7604 91.3311 84.4748 91.7909C84.1896 92.2523 83.7896 92.6011 83.2752 92.8384C82.7628 93.0765 82.1149 93.195 81.3339 93.195C79.9634 93.195 79.0133 92.9179 78.486 92.3593C77.9562 91.8024 77.6578 91.0955 77.5885 90.236Z" fill="#294043"/>
<path d="M85.592 84.5432H93.1656V86.6448H90.6236V93.0507H88.1322V86.6448H85.592V84.5432Z" fill="#294043"/>
<path d="M94.2886 84.5432H100.965V86.3596H96.7854V87.7124H100.663V89.4476H96.7854V91.1233H101.087V93.0507H94.2886V84.5432Z" fill="#294043"/>
<path d="M102.401 84.5432H105.679L106.944 89.7189L108.204 84.5432H111.471V93.0507H109.436V86.5633L107.857 93.0507H106.015L104.442 86.5633V93.0507H102.401V84.5432Z" fill="#294043"/>
<path d="M112.626 90.236L114.997 90.0795C115.047 90.4856 115.153 90.7943 115.31 91.0082C115.566 91.3528 115.934 91.5233 116.41 91.5233C116.765 91.5233 117.04 91.436 117.233 91.2598C117.424 91.0836 117.52 90.8795 117.52 90.6479C117.52 90.4279 117.43 90.2299 117.246 90.0557C117.062 89.8812 116.638 89.7168 115.969 89.5623C114.877 89.3029 114.097 88.9603 113.632 88.5304C113.162 88.1005 112.928 87.5538 112.928 86.8883C112.928 86.4506 113.048 86.0366 113.288 85.6485C113.529 85.2601 113.889 84.9551 114.372 84.7314C114.854 84.5093 115.515 84.3986 116.354 84.3986C117.385 84.3986 118.172 84.6006 118.712 85.0044C119.253 85.4088 119.574 86.0526 119.677 86.9338L117.329 87.0784C117.267 86.6961 117.135 86.417 116.934 86.2424C116.735 86.0703 116.459 85.983 116.108 85.983C115.817 85.983 115.6 86.0465 115.453 86.1772C115.306 86.3059 115.233 86.4645 115.233 86.6506C115.233 86.7854 115.294 86.9063 115.414 87.0149C115.532 87.128 115.81 87.2309 116.251 87.328C117.34 87.5755 118.119 87.8272 118.59 88.0808C119.061 88.3341 119.405 88.6472 119.619 89.0238C119.833 89.398 119.942 89.818 119.942 90.2836C119.942 90.8282 119.798 91.3311 119.512 91.7909C119.227 92.2523 118.827 92.6011 118.312 92.8384C117.8 93.0765 117.152 93.195 116.371 93.195C115.001 93.195 114.05 92.9179 113.523 92.3593C112.993 91.8024 112.695 91.0955 112.626 90.236Z" fill="#294043"/>
</svg>
