<?xml version="1.0" encoding="UTF-8" standalone="no"?>
<!DOCTYPE svg PUBLIC "-//W3C//DTD SVG 1.1//EN" "http://www.w3.org/Graphics/SVG/1.1/DTD/svg11.dtd">
<svg width="100%" height="100%" viewBox="0 0 39 48" version="1.1" xmlns="http://www.w3.org/2000/svg" xmlns:xlink="http://www.w3.org/1999/xlink" xml:space="preserve" xmlns:serif="http://www.serif.com/" style="fill-rule:evenodd;clip-rule:evenodd;stroke-linejoin:round;stroke-miterlimit:2;">
    <g transform="matrix(1,0,0,1,-15.1999,-372.016)">
        <path d="M53.809,377.547C53.809,376.359 52.723,375.586 51.602,375.586C50.706,375.586 47.816,375.586 44.074,375.59L44.074,379.434C47.559,379.434 49.992,379.434 50.031,379.426C50.336,379.406 50.496,379.535 50.523,379.855C50.535,379.953 50.535,415.223 50.519,415.32C50.492,415.641 50.331,415.773 50.031,415.75C49.887,415.738 19.125,415.738 18.984,415.75C18.68,415.773 18.519,415.641 18.492,415.32C18.48,415.223 18.484,379.953 18.496,379.855C18.519,379.535 18.684,379.406 18.984,379.426C19.023,379.43 21.457,379.434 24.941,379.434L24.941,375.613C20.78,375.621 17.73,375.629 17.394,375.637C15.977,375.664 15.23,377.063 15.207,377.598C15.191,377.949 15.207,416.695 15.207,417.625C15.207,418.824 16.296,419.59 17.414,419.59C20.691,419.59 50.527,419.566 51.617,419.539C53.039,419.512 53.785,418.113 53.809,417.578C53.824,417.227 53.809,378.48 53.809,377.543L53.809,377.547Z" style="fill:white;"/>
        <path d="M32.527,375.449C32.527,374.355 33.414,373.465 34.507,373.465C35.605,373.465 36.492,374.355 36.492,375.449C36.492,375.496 36.484,375.539 36.477,375.586L32.539,375.586C32.535,375.539 32.527,375.496 32.527,375.449ZM38.109,375.586C38.094,373.609 36.487,372.016 34.507,372.016C32.53,372.016 30.926,373.609 30.905,375.586L26.773,375.586L26.773,380.77C26.773,380.77 26.676,381.879 27.734,381.871C28.793,381.863 40.293,381.848 41.254,381.871C42.211,381.895 42.242,380.871 42.242,380.871L42.242,375.59C41.164,375.586 39.742,375.586 38.109,375.586Z" style="fill:white;"/>
        <path d="M47.559,389.91L28.367,389.91C27.891,389.91 27.503,390.375 27.503,390.945C27.503,391.52 27.891,391.98 28.367,391.98L47.559,391.98C48.035,391.98 48.426,391.52 48.426,390.945C48.426,390.375 48.035,389.91 47.559,389.91Z" style="fill:white;"/>
        <path d="M24.823,390.945C24.823,389.633 23.757,388.566 22.444,388.566C21.128,388.566 20.066,389.633 20.066,390.945C20.066,392.262 21.128,393.324 22.444,393.324C23.757,393.324 24.823,392.262 24.823,390.945Z" style="fill:white;"/>
        <path d="M47.512,398.559L28.319,398.559C27.839,398.559 27.453,399.023 27.453,399.594C27.453,400.168 27.839,400.633 28.319,400.633L47.512,400.633C47.988,400.633 48.379,400.168 48.379,399.594C48.379,399.023 47.988,398.559 47.512,398.559Z" style="fill:white;"/>
        <path d="M24.875,399.594C24.875,398.277 23.812,397.215 22.496,397.215C21.18,397.215 20.117,398.277 20.117,399.594C20.117,400.91 21.18,401.973 22.496,401.973C23.812,401.973 24.875,400.91 24.875,399.594Z" style="fill:white;"/>
        <path d="M47.363,407.207L28.171,407.207C27.691,407.207 27.305,407.672 27.305,408.242C27.305,408.816 27.691,409.281 28.171,409.281L47.363,409.281C47.84,409.281 48.227,408.816 48.227,408.242C48.227,407.672 47.84,407.207 47.363,407.207Z" style="fill:white;"/>
        <path d="M25.023,408.242C25.023,406.93 23.957,405.863 22.648,405.863C21.328,405.863 20.266,406.93 20.266,408.242C20.266,409.559 21.328,410.625 22.648,410.625C23.957,410.625 25.023,409.559 25.023,408.242Z" style="fill:white;"/>
    </g>
</svg>
