<?xml version="1.0" encoding="UTF-8" standalone="no"?>
<!DOCTYPE svg PUBLIC "-//W3C//DTD SVG 1.1//EN" "http://www.w3.org/Graphics/SVG/1.1/DTD/svg11.dtd">
<svg width="100%" height="100%" viewBox="0 0 47 37" version="1.1" xmlns="http://www.w3.org/2000/svg" xmlns:xlink="http://www.w3.org/1999/xlink" xml:space="preserve" xmlns:serif="http://www.serif.com/" style="fill-rule:evenodd;clip-rule:evenodd;stroke-linejoin:round;stroke-miterlimit:2;">
    <g transform="matrix(1,0,0,1,-342.811,-136.541)">
        <path d="M384.586,146.656C384.59,146.668 384.59,146.68 384.59,146.688C384.949,148.797 384.246,150.953 382.742,152.453C382.738,152.457 382.734,152.461 382.734,152.461C382.629,152.563 382.527,152.664 382.414,152.758L382.414,152.762C381.973,153.141 381.479,153.477 380.929,153.738C380.379,154.004 379.809,154.176 379.234,154.277C379.074,154.305 378.91,154.324 378.75,154.34C378.742,154.344 378.734,154.344 378.727,154.344C377.031,154.508 375.34,154.004 374.012,152.957C374.004,152.953 374,152.949 373.992,152.941C373.848,152.828 373.706,152.707 373.57,152.578C373.547,152.559 373.527,152.535 373.504,152.516C373.383,152.395 373.262,152.27 373.148,152.141C373.141,152.129 373.129,152.121 373.121,152.113L373.121,152.109C372.738,151.672 372.402,151.176 372.141,150.625C371.875,150.07 371.702,149.496 371.602,148.918L371.602,148.895C371.211,146.633 372.039,144.324 373.77,142.816C374.211,142.438 374.702,142.098 375.258,141.836C377.82,140.613 380.77,141.195 382.691,143.07C382.723,143.102 382.762,143.137 382.797,143.172C382.879,143.258 382.961,143.344 383.039,143.434C383.05,143.445 383.063,143.461 383.077,143.477L383.074,143.477C383.452,143.914 383.785,144.402 384.047,144.949C384.309,145.504 384.484,146.082 384.586,146.656L384.59,146.656L384.586,146.656ZM387.324,141.465C386.988,141.625 386.414,141.895 385.672,142.25C384.852,141.129 383.813,140.234 382.645,139.586C383.008,138.578 383.234,137.953 383.238,137.914C383.289,137.695 383.152,137.551 382.831,137.449C382.789,137.438 382.371,137.289 381.695,137.039C381.016,136.789 380.598,136.637 380.559,136.621C380.25,136.492 380.047,136.516 379.945,136.711C379.925,136.75 379.679,137.41 379.285,138.48C378.113,138.328 376.906,138.398 375.723,138.707C375.219,137.66 374.906,137.008 374.883,136.977C374.762,136.789 374.559,136.785 374.266,136.945C374.227,136.965 373.827,137.156 373.175,137.469C372.523,137.781 372.121,137.969 372.081,137.984C371.773,138.113 371.648,138.273 371.719,138.488C371.727,138.527 372.035,139.18 372.531,140.227C371.479,140.996 370.633,141.969 370,143.055C368.902,142.68 368.223,142.449 368.184,142.441C367.965,142.398 367.82,142.539 367.727,142.863C367.715,142.902 367.57,143.324 367.336,144.008C367.102,144.691 366.956,145.109 366.941,145.148C366.816,145.461 366.844,145.66 367.043,145.762C367.074,145.777 367.742,146.012 368.824,146.383C368.629,147.617 368.679,148.898 369.012,150.148C367.965,150.648 367.313,150.965 367.281,150.984C367.094,151.109 367.086,151.309 367.246,151.605C367.27,151.641 367.461,152.043 367.77,152.695C368.077,153.352 368.266,153.75 368.285,153.789C368.414,154.098 368.57,154.223 368.785,154.156C368.827,154.145 369.477,153.836 370.527,153.344C371.219,154.285 372.066,155.07 373.023,155.68C372.715,156.527 372.477,157.184 372.34,157.559C372.254,157.793 372.387,157.984 372.702,158.102C372.738,158.117 372.789,158.133 372.831,158.148C373.715,158.473 374.422,158.727 374.883,158.898C374.925,158.914 374.973,158.93 375.012,158.945C375.327,159.059 375.55,158.996 375.637,158.762C375.773,158.402 375.992,157.785 376.285,156.996C377.648,157.262 379.074,157.23 380.473,156.863C380.827,157.605 381.104,158.18 381.266,158.52C381.371,158.742 381.598,158.785 381.906,158.641C381.938,158.621 381.988,158.598 382.023,158.582C382.477,158.367 383.148,158.047 384,157.641C384.039,157.621 384.086,157.602 384.121,157.582C384.429,157.438 384.539,157.234 384.434,157.012C384.27,156.668 383.996,156.094 383.645,155.352C384.742,154.547 385.629,153.523 386.27,152.379C387.054,152.648 387.668,152.859 388.027,152.98C388.262,153.063 388.449,152.926 388.559,152.609C388.57,152.57 388.59,152.523 388.602,152.484C388.766,152.012 389.008,151.305 389.313,150.414C389.327,150.375 389.348,150.324 389.359,150.285C389.469,149.965 389.402,149.746 389.168,149.664C388.809,149.539 388.188,149.324 387.383,149.047C387.55,147.859 387.492,146.625 387.175,145.422C387.918,145.066 388.496,144.793 388.831,144.633C389.054,144.527 389.098,144.301 388.952,143.996C388.934,143.957 388.91,143.91 388.895,143.871C388.679,143.426 388.359,142.75 387.956,141.895C387.938,141.855 387.914,141.809 387.898,141.773C387.75,141.469 387.55,141.355 387.324,141.465Z" style="fill:white;"/>
        <path d="M378.137,150.898C376.41,150.898 375.008,149.496 375.008,147.77C375.008,146.043 376.41,144.641 378.137,144.641C379.867,144.641 381.266,146.043 381.266,147.77C381.266,149.496 379.867,150.898 378.137,150.898ZM378.137,143.523C375.793,143.523 373.891,145.426 373.891,147.77C373.891,150.113 375.793,152.02 378.137,152.02C380.479,152.02 382.383,150.113 382.383,147.77C382.383,145.426 380.479,143.523 378.137,143.523Z" style="fill:white;"/>
        <path d="M380.109,147.77C380.109,146.68 379.227,145.793 378.137,145.793C377.05,145.793 376.16,146.68 376.16,147.77C376.16,148.859 377.05,149.746 378.137,149.746C379.227,149.746 380.109,148.859 380.109,147.77Z" style="fill:white;"/>
        <path d="M345.91,146.359L355.44,146.36L355.44,148.531L345.909,148.531L345.91,146.359ZM380.425,158.867C380.309,158.613 380.125,158.234 379.895,157.75C379.234,157.879 378.554,157.945 377.879,157.941L377.879,169.188L345.879,169.188L345.879,150.648L366.429,150.648C366.508,150.543 366.602,150.457 366.702,150.387C366.758,150.355 366.793,150.332 367.988,149.762C367.8,148.828 367.754,147.875 367.84,146.918C366.617,146.492 366.59,146.477 366.523,146.445C366.104,146.23 365.758,145.707 366.077,144.898C366.102,144.844 366.242,144.438 366.465,143.789C366.512,143.656 366.55,143.535 366.59,143.426L345.031,143.426C345.03,143.426 342.824,143.352 342.824,145.359C342.828,147.371 342.824,170.004 342.824,170.004C342.828,170.004 342.469,172.984 345.316,172.91C348.16,172.836 377.175,172.984 379.027,172.91C380.875,172.836 380.949,170.23 380.949,170.23L380.949,159.387C380.723,159.281 380.543,159.105 380.425,158.867Z" style="fill:white;"/>
    </g>
</svg>
