<?xml version="1.0" encoding="UTF-8" standalone="no"?>
<!DOCTYPE svg PUBLIC "-//W3C//DTD SVG 1.1//EN" "http://www.w3.org/Graphics/SVG/1.1/DTD/svg11.dtd">
<svg width="100%" height="100%" viewBox="0 0 39 51" version="1.1" xmlns="http://www.w3.org/2000/svg" xmlns:xlink="http://www.w3.org/1999/xlink" xml:space="preserve" xmlns:serif="http://www.serif.com/" style="fill-rule:evenodd;clip-rule:evenodd;stroke-linejoin:round;stroke-miterlimit:2;">
    <g transform="matrix(1,0,0,1,-263.652,-251.033)">
        <path d="M288.344,290.941L288.344,290.969C288.641,292.691 288.066,294.457 286.832,295.688C286.832,295.691 286.828,295.691 286.828,295.699C286.742,295.777 286.656,295.859 286.566,295.934L286.566,295.938C286.207,296.25 285.805,296.523 285.352,296.738C284.902,296.949 284.434,297.094 283.965,297.18C283.836,297.203 283.699,297.215 283.57,297.23C283.563,297.234 283.555,297.234 283.547,297.234C282.16,297.363 280.777,296.957 279.691,296.102C279.688,296.098 279.68,296.094 279.672,296.09C279.559,295.988 279.441,295.895 279.332,295.789C279.313,295.773 279.297,295.754 279.277,295.738C279.176,295.637 279.078,295.539 278.984,295.43C278.977,295.426 278.969,295.414 278.961,295.406L278.965,295.406C278.648,295.047 278.375,294.641 278.156,294.191C277.941,293.734 277.797,293.262 277.719,292.794C277.715,292.785 277.715,292.777 277.715,292.773C277.402,290.93 278.078,289.035 279.492,287.805C279.852,287.492 280.258,287.215 280.711,286.996C282.809,285.996 285.223,286.477 286.793,288.012C286.824,288.039 286.852,288.063 286.879,288.094C286.945,288.16 287.016,288.234 287.082,288.309C287.09,288.316 287.102,288.328 287.109,288.34C287.418,288.7 287.691,289.098 287.906,289.548C288.121,289.996 288.262,290.469 288.344,290.946L288.344,290.941ZM290.586,286.696C290.309,286.825 289.84,287.048 289.23,287.34C288.563,286.419 287.711,285.684 286.754,285.16C287.055,284.332 287.238,283.821 287.242,283.794C287.285,283.605 287.168,283.492 286.906,283.406C286.875,283.398 286.535,283.277 285.977,283.075C285.422,282.871 285.078,282.742 285.051,282.73C284.797,282.621 284.633,282.646 284.547,282.805C284.531,282.836 284.332,283.379 284.012,284.254C283.047,284.129 282.059,284.184 281.09,284.438C280.68,283.582 280.422,283.048 280.402,283.023C280.305,282.871 280.141,282.867 279.898,282.992C279.867,283.012 279.539,283.169 279.004,283.423C278.473,283.676 278.145,283.832 278.109,283.848C277.855,283.953 277.758,284.082 277.813,284.262C277.824,284.289 278.074,284.825 278.48,285.684C277.621,286.313 276.926,287.109 276.406,287.996C275.512,287.688 274.953,287.5 274.922,287.492C274.742,287.461 274.625,287.575 274.547,287.836C274.539,287.867 274.422,288.215 274.23,288.777C274.035,289.336 273.914,289.68 273.902,289.711C273.801,289.965 273.824,290.125 273.988,290.211C274.016,290.227 274.563,290.414 275.445,290.719C275.289,291.73 275.328,292.777 275.598,293.801C274.742,294.207 274.211,294.469 274.18,294.488C274.027,294.59 274.023,294.75 274.156,294.992C274.168,295.023 274.328,295.352 274.582,295.883C274.836,296.422 274.988,296.75 275.004,296.781C275.109,297.035 275.238,297.137 275.414,297.082C275.445,297.074 275.98,296.816 276.84,296.414C277.406,297.184 278.102,297.828 278.883,298.328C278.629,299.02 278.438,299.559 278.324,299.863C278.254,300.059 278.359,300.211 278.617,300.309C278.648,300.32 278.691,300.336 278.727,300.344C279.449,300.613 280.027,300.816 280.402,300.961C280.438,300.969 280.48,300.984 280.512,301C280.77,301.094 280.953,301.043 281.02,300.852C281.129,300.555 281.313,300.051 281.551,299.402C282.664,299.621 283.836,299.598 284.98,299.293C285.27,299.902 285.492,300.371 285.629,300.652C285.715,300.836 285.898,300.867 286.152,300.75C286.18,300.734 286.219,300.715 286.25,300.699C286.617,300.527 287.168,300.266 287.863,299.934C287.895,299.914 287.938,299.895 287.965,299.883C288.215,299.766 288.305,299.598 288.219,299.414C288.086,299.141 287.863,298.664 287.574,298.059C288.473,297.398 289.195,296.563 289.719,295.625C290.363,295.848 290.867,296.016 291.16,296.117C291.348,296.184 291.504,296.074 291.594,295.813C291.605,295.785 291.621,295.742 291.633,295.711C291.762,295.328 291.965,294.746 292.215,294.016C292.227,293.984 292.238,293.945 292.25,293.914C292.34,293.648 292.285,293.473 292.094,293.406C291.797,293.305 291.289,293.125 290.637,292.898C290.77,291.926 290.723,290.919 290.465,289.934C291.074,289.641 291.543,289.423 291.816,289.289C292,289.203 292.035,289.012 291.914,288.766C291.902,288.734 291.883,288.696 291.871,288.664C291.699,288.298 291.434,287.746 291.102,287.051C291.086,287.016 291.07,286.98 291.055,286.95C290.934,286.696 290.766,286.605 290.586,286.696Z" style="fill:white;"/>
        <path d="M283.066,294.414C281.656,294.414 280.504,293.271 280.504,291.855C280.504,290.441 281.656,289.298 283.066,289.298C284.48,289.298 285.629,290.441 285.629,291.855C285.629,293.271 284.48,294.414 283.066,294.414ZM283.066,288.379C281.148,288.379 279.594,289.938 279.594,291.855C279.594,293.777 281.148,295.328 283.066,295.328C284.988,295.328 286.543,293.777 286.543,291.855C286.543,289.938 284.988,288.379 283.066,288.379Z" style="fill:white;"/>
        <path d="M283.836,251.254C284.043,251.504 289.93,259.164 292.109,261.446C292.648,262.012 292.387,262.266 291.535,262.254C291.375,262.254 290.125,262.238 288.375,262.223C288.375,265.419 288.363,272.852 288.359,275C288.355,277.414 287.629,278.313 286.25,278.367C285.832,278.383 280.09,278.34 279.672,278.321C278.297,278.25 277.57,277.34 277.578,274.926C277.578,272.771 277.59,265.277 277.594,262.105C275.859,262.086 274.613,262.071 274.434,262.066C273.598,262.048 273.527,261.859 273.965,261.383C276.07,259.113 282.637,251.621 282.992,251.242C283.25,250.961 283.59,250.961 283.836,251.254Z" style="fill:white;"/>
        <path d="M267.055,266.423L270.14,266.423L270.14,269.251L267.054,269.251L267.055,266.423ZM271.813,266.423L274.898,266.423L274.898,269.251L271.813,269.251L271.813,266.423ZM273.5,293.645C273.555,293.605 273.594,293.578 274.234,293.271C274.156,292.742 274.133,292.211 274.152,291.676C273.543,291.465 273.508,291.446 273.453,291.423C273.051,291.211 272.734,290.825 272.66,290.328L266.77,290.328L266.77,271.473L276.395,271.473C276.398,269.41 276.402,266.863 276.402,264.738L276.406,264.129L265.91,264.129C265.91,264.129 263.668,264.051 263.668,266.098C263.668,267.173 263.652,291.387 263.652,291.387L263.652,291.414C263.645,291.863 263.715,292.825 264.344,293.473C264.629,293.828 265.031,294.09 265.605,294.113C265.777,294.121 268.832,294.125 273.055,294.125C273.168,293.93 273.324,293.762 273.5,293.645Z" style="fill:white;"/>
        <path d="M281.668,291.996C281.668,292.754 282.285,293.371 283.043,293.371C283.805,293.371 284.422,292.754 284.422,291.996C284.422,291.238 283.805,290.621 283.043,290.621C282.285,290.621 281.668,291.238 281.668,291.996Z" style="fill:white;"/>
        <path d="M302.426,269.95C302.422,267.825 302.422,266.344 302.422,266.098C302.422,264.051 300.18,264.129 300.18,264.129L289.559,264.129L289.555,266.423L299.461,266.423L299.461,269.25L289.551,269.25L289.547,271.473L299.324,271.473L299.32,290.328L292.543,290.328C292.461,290.387 292.395,290.461 292.301,290.504L291.785,290.746C291.855,291.234 291.883,291.727 291.867,292.223L292.457,292.426C293.086,292.641 293.57,293.281 293.426,294.121C297.52,294.117 300.422,294.117 300.484,294.113C301.063,294.09 301.461,293.828 301.75,293.473C302.379,292.825 302.445,291.863 302.438,291.414L302.438,269.95L302.426,269.95Z" style="fill:white;"/>
    </g>
</svg>
