<?xml version="1.0" encoding="UTF-8" standalone="no"?>
<!DOCTYPE svg PUBLIC "-//W3C//DTD SVG 1.1//EN" "http://www.w3.org/Graphics/SVG/1.1/DTD/svg11.dtd">
<svg width="100%" height="100%" viewBox="0 0 47 45" version="1.1" xmlns="http://www.w3.org/2000/svg" xmlns:xlink="http://www.w3.org/1999/xlink" xml:space="preserve" xmlns:serif="http://www.serif.com/" style="fill-rule:evenodd;clip-rule:evenodd;stroke-linejoin:round;stroke-miterlimit:2;">
    <g transform="matrix(1,0,0,1,-92.1496,-17.7491)">
        <path d="M123.227,19.59C121.527,20.848 120.383,22.563 119.82,24.434C118.391,24.453 116.832,24.477 115.25,24.496C113.566,24.508 111.914,24.527 110.43,24.543C109.102,20.828 105.52,18.199 101.355,18.293C96.156,18.41 92.035,22.715 92.152,27.914C92.266,33.113 96.57,37.234 101.773,37.117C105.973,37.027 109.461,34.199 110.594,30.367C112.059,30.352 113.672,30.328 115.313,30.313C116.914,30.293 118.492,30.281 119.93,30.27C120.23,31.137 120.668,31.98 121.25,32.762C122.008,33.789 122.938,34.617 123.973,35.238C123.516,36.363 123.023,37.563 122.531,38.785C121.914,40.301 121.297,41.793 120.742,43.148C116.773,42.793 112.859,45.004 111.23,48.875C109.215,53.668 111.461,59.188 116.254,61.203C121.043,63.219 126.57,60.969 128.586,56.176C130.195,52.34 129.074,48.043 126.109,45.445C126.668,44.063 127.285,42.531 127.922,40.977C128.551,39.426 129.184,37.902 129.742,36.527C131.383,36.367 133,35.785 134.418,34.738C138.594,31.648 139.484,25.75 136.387,21.57C133.301,17.387 127.406,16.504 123.227,19.59Z" style="fill:white;"/>
    </g>
</svg>
