<?xml version="1.0" encoding="UTF-8" standalone="no"?>
<!DOCTYPE svg PUBLIC "-//W3C//DTD SVG 1.1//EN" "http://www.w3.org/Graphics/SVG/1.1/DTD/svg11.dtd">
<svg width="100%" height="100%" viewBox="0 0 2065 2061" version="1.1" xmlns="http://www.w3.org/2000/svg" xmlns:xlink="http://www.w3.org/1999/xlink" xml:space="preserve" xmlns:serif="http://www.serif.com/" style="fill-rule:evenodd;clip-rule:evenodd;stroke-linejoin:round;stroke-miterlimit:2;">
    <g transform="matrix(1,0,0,1,-14621.4,-4444.08)">
        <g transform="matrix(4.16667,0,0,4.16667,11543,-8694.29)">
            <path d="M1234.26,3400.52C1234.26,3537.11 1123.54,3647.83 986.954,3647.83C850.367,3647.83 739.642,3537.11 739.642,3400.52C739.642,3263.93 850.367,3153.21 986.954,3153.21C1123.54,3153.21 1234.26,3263.93 1234.26,3400.52Z" style="fill:rgb(0,124,194);fill-rule:nonzero;"/>
        </g>
        <g transform="matrix(4.16667,0,0,4.16667,11543,-8694.29)">
            <path d="M766,3513.51C748.62,3479.68 738.82,3441.33 738.82,3400.69C738.82,3281.34 823.372,3181.74 935.83,3158.5C823.769,3182.05 739.642,3281.46 739.642,3400.52C739.642,3440.58 749.171,3478.42 766.077,3511.89C766.023,3512.87 766.003,3513.42 766,3513.51Z" style="fill:rgb(223,223,222);fill-rule:nonzero;"/>
        </g>
        <g transform="matrix(4.16667,0,0,4.16667,11543,-8694.29)">
            <path d="M1029.63,3243.08C1026.49,3250.96 1003.32,3310.65 994.895,3332.62C994.675,3333.19 994.589,3333.8 994.31,3334.93C1024.57,3327.73 1054.43,3320.63 1085.12,3313.32C1039.47,3403.62 994.097,3493.37 948.727,3583.11C948.487,3583.04 948.248,3582.97 948.008,3582.9C964.52,3517.04 981.032,3451.18 997.709,3384.66C967.262,3392.21 937.377,3399.62 907.169,3407.12C907.223,3406.3 907.175,3405.8 907.301,3405.33C915.168,3375.88 947.251,3252.99 949.59,3243.08L1029.63,3243.08Z" style="fill:white;fill-rule:nonzero;"/>
        </g>
    </g>
</svg>
