<?xml version="1.0" encoding="UTF-8" standalone="no"?>
<!DOCTYPE svg PUBLIC "-//W3C//DTD SVG 1.1//EN" "http://www.w3.org/Graphics/SVG/1.1/DTD/svg11.dtd">
<svg width="100%" height="100%" viewBox="0 0 2061 2061" version="1.1" xmlns="http://www.w3.org/2000/svg" xmlns:xlink="http://www.w3.org/1999/xlink" xml:space="preserve" xmlns:serif="http://www.serif.com/" style="fill-rule:evenodd;clip-rule:evenodd;stroke-linejoin:round;stroke-miterlimit:2;">
    <g transform="matrix(1,0,0,1,-545.1,-3032.27)">
        <g transform="matrix(4.16667,0,0,4.16667,0,0)">
            <path d="M625.446,975.055C625.446,1111.64 514.721,1222.37 378.135,1222.37C241.549,1222.37 130.824,1111.64 130.824,975.055C130.824,838.469 241.549,727.744 378.135,727.744C514.721,727.744 625.446,838.469 625.446,975.055Z" style="fill:rgb(22,124,193);fill-rule:nonzero;"/>
        </g>
        <g transform="matrix(4.16667,0,0,4.16667,0,0)">
            <path d="M498.095,901.051C497.987,898.073 496.821,897.08 494.361,896.521C453.567,887.253 416.359,869.149 382.237,844.346C381.048,843.482 380,843.082 379,843.123L379,843.124L379,843C378,843.041 377.284,843.549 376.129,844.299C364.213,852.034 352.513,860.107 340.151,867.001C315.299,880.86 289.227,891.479 261.51,897.439C259.544,897.862 258.168,898.417 258.092,901.223C257.48,923.988 258.799,946.236 263.479,968.533C265.553,978.414 268.189,988 271.295,997L271.467,997L271.295,997.46C281.885,1029.28 298.115,1058.1 319.725,1084.06C336.45,1104.16 356,1121.74 377,1136.38L377,1136.25C414,1111.87 442.756,1080.4 464.671,1041.81C472.76,1027.58 479.496,1013 484.581,998L484.666,998C495.035,967 499.316,934.77 498.095,901.051Z" style="fill:white;fill-rule:nonzero;"/>
        </g>
    </g>
</svg>
