<?xml version="1.0" encoding="UTF-8" standalone="no"?>
<!DOCTYPE svg PUBLIC "-//W3C//DTD SVG 1.1//EN" "http://www.w3.org/Graphics/SVG/1.1/DTD/svg11.dtd">
<svg width="100%" height="100%" viewBox="0 0 2061 2061" version="1.1" xmlns="http://www.w3.org/2000/svg" xmlns:xlink="http://www.w3.org/1999/xlink" xml:space="preserve" xmlns:serif="http://www.serif.com/" style="fill-rule:evenodd;clip-rule:evenodd;stroke-linejoin:round;stroke-miterlimit:2;">
    <g transform="matrix(1,0,0,1,-18302.3,-18191.4)">
        <g transform="matrix(4.16667,0,0,4.16667,0,0)">
            <path d="M4887.18,4613.25C4887.18,4749.84 4776.45,4860.56 4639.87,4860.56C4503.28,4860.56 4392.55,4749.84 4392.55,4613.25C4392.55,4476.67 4503.28,4365.94 4639.87,4365.94C4776.45,4365.94 4887.18,4476.67 4887.18,4613.25Z" style="fill:rgb(22,124,193);fill-rule:nonzero;"/>
        </g>
        <g transform="matrix(4.16667,0,0,4.16667,0,0)">
            <path d="M4778.12,4621.97C4778.12,4697.84 4716.61,4759.35 4640.73,4759.35C4564.86,4759.35 4503.35,4697.84 4503.35,4621.97C4503.35,4546.09 4564.86,4484.58 4640.73,4484.58C4716.61,4484.58 4778.12,4546.09 4778.12,4621.97Z" style="fill:white;fill-rule:nonzero;"/>
        </g>
        <g transform="matrix(4.16667,0,0,4.16667,0,0)">
            <path d="M4737.26,4621.97C4737.26,4675.27 4694.04,4718.49 4640.73,4718.49C4587.42,4718.49 4544.21,4675.27 4544.21,4621.97C4544.21,4568.66 4587.42,4525.44 4640.73,4525.44C4694.04,4525.44 4737.26,4568.66 4737.26,4621.97Z" style="fill:rgb(22,124,193);fill-rule:nonzero;"/>
        </g>
        <g transform="matrix(4.16667,0,0,4.16667,0,0)">
            <path d="M4708.87,4621.96C4708.87,4659.6 4678.37,4690.1 4640.73,4690.1C4603.1,4690.1 4572.6,4659.6 4572.6,4621.96C4572.6,4584.33 4603.1,4553.83 4640.73,4553.83C4678.37,4553.83 4708.87,4584.33 4708.87,4621.96Z" style="fill:white;fill-rule:nonzero;"/>
        </g>
        <g transform="matrix(4.16667,0,0,4.16667,0,0)">
            <path d="M4673.23,4621.97C4673.23,4639.91 4658.68,4654.47 4640.73,4654.47C4622.78,4654.47 4608.23,4639.91 4608.23,4621.97C4608.23,4604.02 4622.78,4589.47 4640.73,4589.47C4658.68,4589.47 4673.23,4604.02 4673.23,4621.97Z" style="fill:rgb(22,124,193);fill-rule:nonzero;"/>
        </g>
        <g transform="matrix(4.16667,0,0,4.16667,0,0)">
            <path d="M4851.57,4542.14L4833.94,4530C4834.45,4527.86 4834.25,4525.53 4833.17,4523.41C4832.36,4521.82 4831.16,4520.55 4829.75,4519.66L4831.83,4497.79C4832.12,4494.8 4830.11,4493.37 4827.38,4494.62L4781.32,4515.62C4778.59,4516.87 4775.88,4520.31 4775.3,4523.26L4770.85,4546.2L4646.1,4614.38C4641.38,4616.78 4636.74,4617.15 4639.14,4621.88C4641.54,4626.61 4644.58,4623.09 4649.31,4620.69L4776.44,4560.98L4794,4571.39C4796.58,4572.92 4800.89,4573.07 4803.58,4571.72L4851.2,4547.71C4853.88,4546.35 4854.05,4543.85 4851.57,4542.14Z" style="fill:white;fill-rule:nonzero;"/>
        </g>
    </g>
</svg>
