<?xml version="1.0" encoding="UTF-8" standalone="no"?>
<!DOCTYPE svg PUBLIC "-//W3C//DTD SVG 1.1//EN" "http://www.w3.org/Graphics/SVG/1.1/DTD/svg11.dtd">
<svg width="100%" height="100%" viewBox="0 0 2061 2066" version="1.1" xmlns="http://www.w3.org/2000/svg" xmlns:xlink="http://www.w3.org/1999/xlink" xml:space="preserve" xmlns:serif="http://www.serif.com/" style="fill-rule:evenodd;clip-rule:evenodd;stroke-linejoin:round;stroke-miterlimit:2;">
    <g transform="matrix(1,0,0,1,-34499.6,-9320.85)">
        <g transform="matrix(4.16667,0,0,4.16667,26344.3,1240.1)">
            <path d="M2451.9,2187.79C2451.9,2324.37 2341.18,2435.1 2204.59,2435.1C2068,2435.1 1957.28,2324.37 1957.28,2187.79C1957.28,2051.2 2068,1940.48 2204.59,1940.48C2341.18,1940.48 2451.9,2051.2 2451.9,2187.79Z" style="fill:rgb(0,124,194);fill-rule:nonzero;"/>
        </g>
        <g transform="matrix(4.16667,0,0,4.16667,26344.3,1240.1)">
            <path d="M1982.87,2078.12C2023.07,1995.96 2107.5,1939.38 2205.13,1939.38C2259.55,1939.38 2309.87,1956.96 2350.71,1986.74C2349.97,1986.71 2349.25,1986.68 2348.52,1986.65C2307.98,1957.59 2258.28,1940.48 2204.59,1940.48C2107.39,1940.48 2023.28,1996.55 1982.87,2078.12Z" style="fill:rgb(223,223,222);fill-rule:nonzero;"/>
        </g>
        <g transform="matrix(4.16667,0,0,4.16667,26344.3,1240.1)">
            <rect x="2142.77" y="2035.1" width="19.61" height="286.41" style="fill:white;fill-rule:nonzero;"/>
        </g>
        <g transform="matrix(4.16667,0,0,4.16667,26344.3,1240.1)">
            <path d="M2173.54,2035.1C2173.54,2046.68 2164.15,2056.07 2152.57,2056.07C2140.99,2056.07 2131.6,2046.68 2131.6,2035.1C2131.6,2023.52 2140.99,2014.13 2152.57,2014.13C2164.15,2014.13 2173.54,2023.52 2173.54,2035.1Z" style="fill:white;fill-rule:nonzero;"/>
        </g>
        <g transform="matrix(4.16667,0,0,4.16667,26344.3,1240.1)">
            <path d="M2370.67,2133.68L2162.38,2207.96L2162.38,2059.4L2370.67,2133.68Z" style="fill:white;fill-rule:nonzero;"/>
        </g>
        <g transform="matrix(4.16667,0,0,4.16667,26344.3,1240.1)">
            <path d="M2182.42,2321.51C2182.42,2337.99 2169.05,2351.35 2152.57,2351.35C2136.09,2351.35 2122.73,2337.99 2122.73,2321.51C2122.73,2305.03 2136.09,2291.67 2152.57,2291.67C2169.05,2291.67 2182.42,2305.03 2182.42,2321.51Z" style="fill:white;fill-rule:nonzero;"/>
        </g>
    </g>
</svg>
