<?xml version="1.0" encoding="UTF-8" standalone="no"?>
<!DOCTYPE svg PUBLIC "-//W3C//DTD SVG 1.1//EN" "http://www.w3.org/Graphics/SVG/1.1/DTD/svg11.dtd">
<svg width="100%" height="100%" viewBox="0 0 2061 2061" version="1.1" xmlns="http://www.w3.org/2000/svg" xmlns:xlink="http://www.w3.org/1999/xlink" xml:space="preserve" xmlns:serif="http://www.serif.com/" style="fill-rule:evenodd;clip-rule:evenodd;stroke-linejoin:round;stroke-miterlimit:2;">
    <g transform="matrix(1,0,0,1,-545.1,-15664.9)">
        <g transform="matrix(4.16667,0,0,4.16667,0,0)">
            <path d="M625.446,4006.89C625.446,4143.47 514.721,4254.2 378.135,4254.2C241.549,4254.2 130.824,4143.47 130.824,4006.89C130.824,3870.3 241.549,3759.57 378.135,3759.57C514.721,3759.57 625.446,3870.3 625.446,4006.89Z" style="fill:rgb(22,124,193);fill-rule:nonzero;"/>
        </g>
        <g transform="matrix(4.16667,0,0,4.16667,0,0)">
            <path d="M528.189,4002.89C528.189,4085.76 461.007,4152.94 378.134,4152.94C295.261,4152.94 228.081,4085.76 228.081,4002.89C228.081,3920.02 295.261,3852.83 378.134,3852.83C461.007,3852.83 528.189,3920.02 528.189,4002.89Z" style="fill:white;fill-rule:nonzero;"/>
        </g>
        <g transform="matrix(4.16667,0,0,4.16667,0,0)">
            <path d="M378.134,4139.99C302.415,4139.99 241.034,4078.6 241.034,4002.89C241.034,3927.17 302.415,3865.78 378.134,3865.78C453.851,3865.78 515.236,3927.17 515.236,4002.89C515.236,4078.6 453.851,4139.99 378.134,4139.99ZM378.134,3860.63C299.568,3860.63 235.878,3924.32 235.878,4002.89C235.878,4081.45 299.568,4145.14 378.134,4145.14C456.701,4145.14 520.391,4081.45 520.391,4002.89C520.391,3924.32 456.701,3860.63 378.134,3860.63Z" style="fill:rgb(22,124,193);fill-rule:nonzero;"/>
        </g>
        <g transform="matrix(4.16667,0,0,4.16667,0,0)">
            <path d="M480.554,4002.89C480.554,4059.45 434.698,4105.31 378.134,4105.31C321.57,4105.31 275.715,4059.45 275.715,4002.89C275.715,3946.32 321.57,3900.47 378.134,3900.47C434.698,3900.47 480.554,3946.32 480.554,4002.89Z" style="fill:rgb(22,124,193);fill-rule:nonzero;"/>
        </g>
        <g transform="matrix(4.16667,0,0,4.16667,0,0)">
            <path d="M474.465,4002.89C474.465,4056.08 431.338,4099.21 378.132,4099.21C324.933,4099.21 281.805,4056.08 281.805,4002.89C281.805,3949.68 324.933,3906.55 378.132,3906.55C431.338,3906.55 474.465,3949.68 474.465,4002.89Z" style="fill:white;fill-rule:nonzero;"/>
        </g>
        <g transform="matrix(4.16667,0,0,4.16667,0,0)">
            <path d="M369.977,4058.67C358.065,4058.13 346.589,4055.47 335.549,4050.68L335.549,4023.59C341.857,4026.8 348.71,4029.48 356.107,4031.63C363.503,4033.78 370.003,4034.85 375.606,4034.85C380.228,4034.85 383.613,4034.29 385.763,4033.18C387.911,4032.07 388.985,4030.2 388.985,4027.59C388.985,4025.8 388.21,4024.27 386.66,4023.02C385.11,4021.77 382.526,4020.36 378.91,4018.78C375.292,4017.2 370.411,4015.3 364.266,4013.07C357.358,4010.51 351.783,4007.64 347.541,4004.46C343.299,4001.28 340.212,3997.72 338.282,3993.78C336.35,3989.83 335.385,3984.92 335.385,3979.05C335.385,3970.08 338.267,3963.06 344.033,3958C349.798,3952.94 358.445,3949.82 369.977,3948.62L369.977,3930.52L386.864,3930.52L386.864,3948.46C397.686,3949.06 408.592,3951.72 419.579,3956.45L409.87,3979.7C398.502,3974.59 388.251,3972.03 379.114,3972.03C374.762,3972.03 371.702,3972.56 369.936,3973.62C368.168,3974.69 367.284,3976.25 367.284,3978.32C367.284,3980.11 367.923,3981.59 369.202,3982.76C370.479,3983.93 372.696,3985.24 375.85,3986.68C379.004,3988.12 383.383,3989.79 388.985,3991.69C400.352,3995.72 408.51,4000.3 413.46,4005.44C418.408,4010.58 420.884,4017.2 420.884,4025.31C420.884,4034.44 417.988,4041.87 412.195,4047.58C406.404,4053.29 397.959,4056.83 386.864,4058.18L386.864,4080.02L369.977,4080.02L369.977,4058.67Z" style="fill:rgb(22,124,193);fill-rule:nonzero;"/>
        </g>
    </g>
</svg>
