<?xml version="1.0" encoding="UTF-8" standalone="no"?>
<!DOCTYPE svg PUBLIC "-//W3C//DTD SVG 1.1//EN" "http://www.w3.org/Graphics/SVG/1.1/DTD/svg11.dtd">
<svg width="100%" height="100%" viewBox="0 0 2061 2063" version="1.1" xmlns="http://www.w3.org/2000/svg" xmlns:xlink="http://www.w3.org/1999/xlink" xml:space="preserve" xmlns:serif="http://www.serif.com/" style="fill-rule:evenodd;clip-rule:evenodd;stroke-linejoin:round;stroke-miterlimit:2;">
    <g transform="matrix(1,0,0,1,-36889.8,-9197.22)">
        <g transform="matrix(4.16667,0,0,4.16667,28734.5,6166.48)">
            <path d="M2451.9,975.055C2451.9,1111.64 2341.18,1222.37 2204.59,1222.37C2068,1222.37 1957.28,1111.64 1957.28,975.055C1957.28,838.469 2068,727.745 2204.59,727.745C2341.18,727.745 2451.9,838.469 2451.9,975.055Z" style="fill:rgb(0,124,194);fill-rule:nonzero;"/>
        </g>
        <g transform="matrix(4.16667,0,0,4.16667,28734.5,6166.48)">
            <path d="M2350.71,774.74C2350.34,774.724 2349.96,774.708 2349.6,774.693C2308.86,745.162 2258.75,727.745 2204.59,727.745C2153.59,727.745 2106.19,743.183 2066.82,769.643C2106.3,742.961 2153.9,727.38 2205.13,727.38C2259.55,727.38 2309.87,744.96 2350.71,774.74Z" style="fill:rgb(223,223,222);fill-rule:nonzero;"/>
        </g>
        <g transform="matrix(4.16667,0,0,4.16667,28734.5,6166.48)">
            <path d="M2143.96,867.859L2253.27,867.859C2307.13,867.859 2350.8,911.525 2350.8,965.389L2350.8,968.939C2350.8,1022.8 2307.13,1066.47 2253.27,1066.47L2234.92,1066.47C2226.83,1066.47 2221.24,1074.56 2224.1,1082.13L2231.57,1101.9C2234.2,1108.85 2226.28,1115.03 2220.18,1110.79L2165.78,1073.02C2159.64,1068.76 2152.33,1066.47 2144.86,1066.47C2091.34,1066.47 2047.97,1023.09 2047.97,969.581L2047.97,963.848C2047.97,910.835 2090.94,867.859 2143.96,867.859Z" style="fill:white;fill-rule:nonzero;"/>
        </g>
        <g transform="matrix(4.16667,0,0,4.16667,28734.5,6166.48)">
            <path d="M2224.35,993.453C2224.2,1003.5 2227.6,1010.74 2234.1,1010.74C2240.45,1010.74 2243.55,1004.24 2243.55,993.453C2243.55,983.703 2241.04,976.168 2234.1,976.168C2227.3,976.168 2224.35,983.85 2224.35,993.453ZM2260.25,992.42C2260.25,1012.51 2247.54,1023 2233.65,1023C2219.17,1023 2207.65,1012.07 2207.5,994.044C2207.5,976.907 2217.99,963.906 2234.39,963.906C2250.94,963.906 2260.25,976.02 2260.25,992.42ZM2165.69,1023.3L2220.8,924.016L2232.92,924.016L2177.66,1023.3L2165.69,1023.3ZM2155.06,953.564C2155.06,963.61 2158.45,970.849 2164.95,970.849C2171.31,970.849 2174.41,964.349 2174.41,953.564C2174.41,943.813 2171.75,936.278 2164.81,936.278C2158.16,936.278 2155.06,943.961 2155.06,953.564ZM2191.1,952.53C2191.1,972.622 2178.4,983.112 2164.51,983.112C2149.88,983.112 2138.36,972.179 2138.36,954.154C2138.36,937.017 2148.85,924.016 2165.25,924.016C2181.8,924.016 2191.1,936.13 2191.1,952.53Z" style="fill:rgb(11,123,163);fill-rule:nonzero;"/>
        </g>
    </g>
</svg>
