<?xml version="1.0" encoding="UTF-8" standalone="no"?>
<!DOCTYPE svg PUBLIC "-//W3C//DTD SVG 1.1//EN" "http://www.w3.org/Graphics/SVG/1.1/DTD/svg11.dtd">
<svg width="100%" height="100%" viewBox="0 0 2061 2061" version="1.1" xmlns="http://www.w3.org/2000/svg" xmlns:xlink="http://www.w3.org/1999/xlink" xml:space="preserve" xmlns:serif="http://www.serif.com/" style="fill-rule:evenodd;clip-rule:evenodd;stroke-linejoin:round;stroke-miterlimit:2;">
    <g transform="matrix(1,0,0,1,-545.083,-505.75)">
        <g transform="matrix(4.16667,0,0,4.16667,0,0)">
            <path d="M625.45,368.69C625.45,505.28 514.719,616 378.13,616C282.19,616 199.01,561.37 158.001,481.521L158.001,481.511C140.619,447.68 130.82,409.33 130.82,368.69C130.82,232.1 241.55,121.38 378.13,121.38C432.55,121.38 482.87,138.96 523.71,168.74C585.38,213.72 625.45,286.52 625.45,368.69Z" style="fill:rgb(22,124,193);fill-rule:nonzero;"/>
        </g>
        <g transform="matrix(4.16667,0,0,4.16667,0,0)">
            <g transform="matrix(1,0,0,1,10.621,0.000732422)">
                <path d="M531.775,362.118C522.757,377.556 513.732,392.988 504.726,408.432C501.08,414.683 497.477,420.959 493.527,427.792C480.751,405.673 468.222,383.98 455.329,361.657L477.491,361.657C475.542,330.021 462.607,304.605 438.818,284.183C445.524,275.977 452.152,267.868 458.966,259.53C490.484,286.366 507.176,320.116 509.482,361.297L531.775,361.297L531.775,362.118Z" style="fill:white;fill-rule:nonzero;"/>
                <path d="M374.084,532.95C358.647,523.932 343.214,514.907 327.77,505.901C321.519,502.256 315.243,498.654 308.411,494.704C330.531,481.929 352.224,469.399 374.674,456.432L374.674,478.708C406.265,476.623 431.672,463.742 452.01,439.995C460.222,446.706 468.333,453.333 476.672,460.148C449.832,491.644 416.093,508.36 374.905,510.655L374.905,532.95L374.084,532.95Z" style="fill:white;fill-rule:nonzero;"/>
                <path d="M203.253,375.259C212.271,359.82 221.299,344.386 230.305,328.94C233.951,322.689 237.551,316.411 241.495,309.587C254.273,331.713 266.804,353.41 279.762,375.847L257.502,375.847C259.54,407.433 272.457,432.829 296.204,453.184C289.505,461.383 282.877,469.493 276.057,477.84C244.532,451.027 227.853,417.271 225.539,376.081L203.253,376.081L203.253,375.259Z" style="fill:white;fill-rule:nonzero;"/>
                <path d="M360.943,204.428C374.728,212.484 388.507,220.55 402.301,228.591C410.205,233.199 418.133,237.767 426.606,242.675C404.493,255.446 382.798,267.976 360.477,280.868L360.477,258.713C328.825,260.624 303.438,273.612 283.005,297.374C274.809,290.677 266.698,284.05 258.354,277.233C285.17,245.701 318.931,229.039 360.122,226.706L360.122,204.428L360.943,204.428Z" style="fill:white;fill-rule:nonzero;"/>
            </g>
        </g>
    </g>
</svg>
